<?xml version="1.0" encoding="UTF-8"?>
<svg xmlns="http://www.w3.org/2000/svg" xmlns:xlink="http://www.w3.org/1999/xlink" width="468pt" height="309pt" viewBox="0 0 468 309">
<defs>
<g>
<g id="glyph-0-0">
<path d="M 0.3125 0 L 0.3125 -6.9375 L 5.8125 -6.9375 L 5.8125 0 Z M 4.953125 -0.875 L 4.953125 -6.0625 L 1.1875 -6.0625 L 1.1875 -0.875 Z M 4.953125 -0.875 "/>
</g>
<g id="glyph-0-1">
<path d="M 0.828125 -6.9375 L 3.953125 -6.9375 C 4.566406 -6.9375 5.0625 -6.757812 5.4375 -6.40625 C 5.8125 -6.0625 6 -5.578125 6 -4.953125 C 6 -4.410156 5.832031 -3.9375 5.5 -3.53125 C 5.164062 -3.132812 4.648438 -2.9375 3.953125 -2.9375 L 1.765625 -2.9375 L 1.765625 0 L 0.828125 0 Z M 5.0625 -4.9375 C 5.0625 -5.445312 4.867188 -5.796875 4.484375 -5.984375 C 4.273438 -6.078125 3.992188 -6.125 3.640625 -6.125 L 1.765625 -6.125 L 1.765625 -3.71875 L 3.640625 -3.71875 C 4.054688 -3.71875 4.394531 -3.804688 4.65625 -3.984375 C 4.925781 -4.171875 5.0625 -4.488281 5.0625 -4.9375 Z M 5.0625 -4.9375 "/>
</g>
<g id="glyph-0-2">
<path d="M 1.34375 -2.234375 C 1.375 -1.835938 1.46875 -1.519531 1.625 -1.28125 C 1.9375 -0.820312 2.488281 -0.59375 3.28125 -0.59375 C 3.632812 -0.59375 3.953125 -0.640625 4.234375 -0.734375 C 4.796875 -0.929688 5.078125 -1.285156 5.078125 -1.796875 C 5.078125 -2.171875 4.960938 -2.4375 4.734375 -2.59375 C 4.492188 -2.75 4.117188 -2.890625 3.609375 -3.015625 L 2.65625 -3.21875 C 2.050781 -3.351562 1.617188 -3.503906 1.359375 -3.671875 C 0.921875 -3.960938 0.703125 -4.398438 0.703125 -4.984375 C 0.703125 -5.597656 0.914062 -6.101562 1.34375 -6.5 C 1.78125 -6.90625 2.390625 -7.109375 3.171875 -7.109375 C 3.898438 -7.109375 4.519531 -6.929688 5.03125 -6.578125 C 5.539062 -6.234375 5.796875 -5.675781 5.796875 -4.90625 L 4.90625 -4.90625 C 4.863281 -5.269531 4.765625 -5.550781 4.609375 -5.75 C 4.316406 -6.113281 3.832031 -6.296875 3.15625 -6.296875 C 2.59375 -6.296875 2.191406 -6.175781 1.953125 -5.9375 C 1.710938 -5.707031 1.59375 -5.441406 1.59375 -5.140625 C 1.59375 -4.796875 1.734375 -4.546875 2.015625 -4.390625 C 2.203125 -4.285156 2.625 -4.160156 3.28125 -4.015625 L 4.25 -3.796875 C 4.71875 -3.679688 5.082031 -3.535156 5.34375 -3.359375 C 5.78125 -3.023438 6 -2.550781 6 -1.9375 C 6 -1.164062 5.71875 -0.613281 5.15625 -0.28125 C 4.601562 0.0390625 3.957031 0.203125 3.21875 0.203125 C 2.351562 0.203125 1.675781 -0.015625 1.1875 -0.453125 C 0.695312 -0.890625 0.457031 -1.484375 0.46875 -2.234375 Z M 3.25 -7.125 Z M 3.25 -7.125 "/>
</g>
<g id="glyph-0-3">
</g>
<g id="glyph-0-4">
<path d="M 1.078125 -4.984375 L 2.0625 -4.984375 L 2.0625 -3.96875 L 1.078125 -3.96875 Z M 1.078125 -1.03125 L 2.0625 -1.03125 L 2.0625 0 L 1.078125 0 Z M 1.078125 -1.03125 "/>
</g>
<g id="glyph-0-5">
<path d="M 1.015625 -5.0625 L 1.984375 -1.078125 L 2.96875 -5.0625 L 3.921875 -5.0625 L 4.921875 -1.09375 L 5.953125 -5.0625 L 6.8125 -5.0625 L 5.34375 0 L 4.453125 0 L 3.421875 -3.921875 L 2.421875 0 L 1.546875 0 L 0.078125 -5.0625 Z M 1.015625 -5.0625 "/>
</g>
<g id="glyph-0-6">
<path d="M 2.203125 -6.9375 L 2.921875 -6.9375 L 0.71875 0 L 0 0 Z M 2.203125 -6.9375 "/>
</g>
<g id="glyph-0-7">
<path d="M 5.359375 -3.875 L 5.359375 -3.09375 L 0.4375 -3.09375 L 0.4375 -3.875 Z M 5.359375 -1.859375 L 5.359375 -1.046875 L 0.4375 -1.046875 L 0.4375 -1.859375 Z M 5.359375 -1.859375 "/>
</g>
<g id="glyph-0-8">
<path d="M 2.609375 -6.765625 C 3.484375 -6.765625 4.117188 -6.40625 4.515625 -5.6875 C 4.816406 -5.125 4.96875 -4.359375 4.96875 -3.390625 C 4.96875 -2.472656 4.832031 -1.710938 4.5625 -1.109375 C 4.164062 -0.242188 3.515625 0.1875 2.609375 0.1875 C 1.796875 0.1875 1.191406 -0.164062 0.796875 -0.875 C 0.460938 -1.457031 0.296875 -2.25 0.296875 -3.25 C 0.296875 -4.007812 0.394531 -4.664062 0.59375 -5.21875 C 0.96875 -6.25 1.640625 -6.765625 2.609375 -6.765625 Z M 2.609375 -0.59375 C 3.046875 -0.59375 3.394531 -0.785156 3.65625 -1.171875 C 3.914062 -1.566406 4.046875 -2.296875 4.046875 -3.359375 C 4.046875 -4.128906 3.953125 -4.757812 3.765625 -5.25 C 3.578125 -5.75 3.210938 -6 2.671875 -6 C 2.171875 -6 1.800781 -5.757812 1.5625 -5.28125 C 1.332031 -4.8125 1.21875 -4.125 1.21875 -3.21875 C 1.21875 -2.519531 1.289062 -1.960938 1.4375 -1.546875 C 1.664062 -0.910156 2.054688 -0.59375 2.609375 -0.59375 Z M 2.609375 -0.59375 "/>
</g>
<g id="glyph-0-9">
<path d="M 0.796875 0.984375 C 1.015625 0.953125 1.171875 0.800781 1.265625 0.53125 C 1.304688 0.382812 1.328125 0.25 1.328125 0.125 C 1.328125 0.09375 1.328125 0.0664062 1.328125 0.046875 C 1.328125 0.0351562 1.320312 0.0195312 1.3125 0 L 0.796875 0 L 0.796875 -1.03125 L 1.8125 -1.03125 L 1.8125 -0.078125 C 1.8125 0.296875 1.734375 0.625 1.578125 0.90625 C 1.429688 1.195312 1.171875 1.375 0.796875 1.4375 Z M 0.796875 0.984375 "/>
</g>
<g id="glyph-0-10">
<path d="M 5.0625 -6.65625 L 5.0625 -5.90625 C 4.84375 -5.695312 4.550781 -5.332031 4.1875 -4.8125 C 3.832031 -4.289062 3.515625 -3.722656 3.234375 -3.109375 C 2.960938 -2.523438 2.753906 -1.988281 2.609375 -1.5 C 2.515625 -1.1875 2.394531 -0.6875 2.25 0 L 1.3125 0 C 1.53125 -1.289062 2.003906 -2.578125 2.734375 -3.859375 C 3.160156 -4.609375 3.613281 -5.253906 4.09375 -5.796875 L 0.359375 -5.796875 L 0.359375 -6.65625 Z M 5.0625 -6.65625 "/>
</g>
<g id="glyph-0-11">
<path d="M 1.46875 -5.0625 L 1.46875 -1.703125 C 1.46875 -1.441406 1.507812 -1.226562 1.59375 -1.0625 C 1.75 -0.757812 2.03125 -0.609375 2.4375 -0.609375 C 3.03125 -0.609375 3.4375 -0.875 3.65625 -1.40625 C 3.769531 -1.6875 3.828125 -2.078125 3.828125 -2.578125 L 3.828125 -5.0625 L 4.671875 -5.0625 L 4.671875 0 L 3.875 0 L 3.875 -0.75 C 3.769531 -0.550781 3.632812 -0.390625 3.46875 -0.265625 C 3.144531 0.00390625 2.753906 0.140625 2.296875 0.140625 C 1.566406 0.140625 1.070312 -0.0976562 0.8125 -0.578125 C 0.675781 -0.835938 0.609375 -1.1875 0.609375 -1.625 L 0.609375 -5.0625 Z M 2.640625 -5.1875 Z M 2.640625 -5.1875 "/>
</g>
<g id="glyph-0-12">
<path d="M 0.921875 -4.78125 L 0.921875 -5.4375 C 1.535156 -5.5 1.960938 -5.597656 2.203125 -5.734375 C 2.453125 -5.878906 2.632812 -6.210938 2.75 -6.734375 L 3.421875 -6.734375 L 3.421875 0 L 2.515625 0 L 2.515625 -4.78125 Z M 0.921875 -4.78125 "/>
</g>
<g id="glyph-0-13">
<path d="M 2.125 -6.9375 L 2.125 -5.890625 L 3.15625 -6.25 L 3.34375 -5.71875 L 2.3125 -5.390625 L 2.953125 -4.5 L 2.484375 -4.15625 L 1.859375 -5.078125 L 1.234375 -4.15625 L 0.765625 -4.5 L 1.40625 -5.390625 L 0.375 -5.71875 L 0.5625 -6.25 L 1.578125 -5.875 L 1.578125 -6.9375 Z M 2.125 -6.9375 "/>
</g>
<g id="glyph-0-14">
<path d="M 0.296875 0 C 0.328125 -0.582031 0.445312 -1.085938 0.65625 -1.515625 C 0.875 -1.953125 1.285156 -2.347656 1.890625 -2.703125 L 2.796875 -3.21875 C 3.203125 -3.457031 3.488281 -3.660156 3.65625 -3.828125 C 3.90625 -4.085938 4.03125 -4.382812 4.03125 -4.71875 C 4.03125 -5.113281 3.910156 -5.425781 3.671875 -5.65625 C 3.441406 -5.882812 3.128906 -6 2.734375 -6 C 2.148438 -6 1.75 -5.78125 1.53125 -5.34375 C 1.40625 -5.101562 1.335938 -4.773438 1.328125 -4.359375 L 0.46875 -4.359375 C 0.476562 -4.953125 0.585938 -5.429688 0.796875 -5.796875 C 1.160156 -6.453125 1.8125 -6.78125 2.75 -6.78125 C 3.519531 -6.78125 4.082031 -6.570312 4.4375 -6.15625 C 4.800781 -5.738281 4.984375 -5.273438 4.984375 -4.765625 C 4.984375 -4.222656 4.789062 -3.757812 4.40625 -3.375 C 4.1875 -3.144531 3.789062 -2.875 3.21875 -2.5625 L 2.578125 -2.203125 C 2.265625 -2.035156 2.019531 -1.875 1.84375 -1.71875 C 1.53125 -1.4375 1.332031 -1.128906 1.25 -0.796875 L 4.9375 -0.796875 L 4.9375 0 Z M 0.296875 0 "/>
</g>
<g id="glyph-0-15">
<path d="M 3.203125 -2.390625 L 3.203125 -5.453125 L 1.03125 -2.390625 Z M 3.21875 0 L 3.21875 -1.65625 L 0.25 -1.65625 L 0.25 -2.484375 L 3.34375 -6.78125 L 4.0625 -6.78125 L 4.0625 -2.390625 L 5.0625 -2.390625 L 5.0625 -1.65625 L 4.0625 -1.65625 L 4.0625 0 Z M 3.21875 0 "/>
</g>
<g id="glyph-1-0">
<path d="M 0.328125 0 L 0.328125 -7.46875 L 6.265625 -7.46875 L 6.265625 0 Z M 5.328125 -0.9375 L 5.328125 -6.53125 L 1.265625 -6.53125 L 1.265625 -0.9375 Z M 5.328125 -0.9375 "/>
</g>
<g id="glyph-1-1">
<path d="M 2.8125 -7.28125 C 3.757812 -7.28125 4.441406 -6.890625 4.859375 -6.109375 C 5.179688 -5.515625 5.34375 -4.691406 5.34375 -3.640625 C 5.34375 -2.660156 5.195312 -1.84375 4.90625 -1.1875 C 4.476562 -0.257812 3.78125 0.203125 2.8125 0.203125 C 1.9375 0.203125 1.285156 -0.175781 0.859375 -0.9375 C 0.503906 -1.570312 0.328125 -2.421875 0.328125 -3.484375 C 0.328125 -4.316406 0.429688 -5.03125 0.640625 -5.625 C 1.046875 -6.726562 1.769531 -7.28125 2.8125 -7.28125 Z M 2.8125 -0.640625 C 3.28125 -0.640625 3.65625 -0.847656 3.9375 -1.265625 C 4.21875 -1.679688 4.359375 -2.460938 4.359375 -3.609375 C 4.359375 -4.441406 4.253906 -5.125 4.046875 -5.65625 C 3.847656 -6.1875 3.457031 -6.453125 2.875 -6.453125 C 2.332031 -6.453125 1.9375 -6.195312 1.6875 -5.6875 C 1.4375 -5.1875 1.3125 -4.441406 1.3125 -3.453125 C 1.3125 -2.710938 1.394531 -2.117188 1.5625 -1.671875 C 1.800781 -0.984375 2.21875 -0.640625 2.8125 -0.640625 Z M 2.8125 -0.640625 "/>
</g>
<g id="glyph-1-2">
<path d="M 0.890625 -1.109375 L 1.953125 -1.109375 L 1.953125 0 L 0.890625 0 Z M 0.890625 -1.109375 "/>
</g>
<g id="glyph-1-3">
<path d="M 1.28125 -1.859375 C 1.34375 -1.335938 1.585938 -0.972656 2.015625 -0.765625 C 2.234375 -0.671875 2.484375 -0.625 2.765625 -0.625 C 3.304688 -0.625 3.707031 -0.796875 3.96875 -1.140625 C 4.226562 -1.484375 4.359375 -1.863281 4.359375 -2.28125 C 4.359375 -2.789062 4.203125 -3.179688 3.890625 -3.453125 C 3.585938 -3.734375 3.21875 -3.875 2.78125 -3.875 C 2.46875 -3.875 2.195312 -3.8125 1.96875 -3.6875 C 1.738281 -3.570312 1.546875 -3.40625 1.390625 -3.1875 L 0.59375 -3.234375 L 1.15625 -7.15625 L 4.9375 -7.15625 L 4.9375 -6.265625 L 1.84375 -6.265625 L 1.53125 -4.25 C 1.695312 -4.375 1.859375 -4.46875 2.015625 -4.53125 C 2.285156 -4.644531 2.597656 -4.703125 2.953125 -4.703125 C 3.617188 -4.703125 4.179688 -4.488281 4.640625 -4.0625 C 5.109375 -3.632812 5.34375 -3.085938 5.34375 -2.421875 C 5.34375 -1.734375 5.128906 -1.125 4.703125 -0.59375 C 4.273438 -0.0703125 3.597656 0.1875 2.671875 0.1875 C 2.078125 0.1875 1.550781 0.0195312 1.09375 -0.3125 C 0.644531 -0.644531 0.390625 -1.160156 0.328125 -1.859375 Z M 1.28125 -1.859375 "/>
</g>
<g id="glyph-1-4">
<path d="M 3.046875 -7.3125 C 3.859375 -7.3125 4.421875 -7.097656 4.734375 -6.671875 C 5.054688 -6.253906 5.21875 -5.820312 5.21875 -5.375 L 4.3125 -5.375 C 4.257812 -5.65625 4.175781 -5.878906 4.0625 -6.046875 C 3.84375 -6.347656 3.507812 -6.5 3.0625 -6.5 C 2.550781 -6.5 2.144531 -6.265625 1.84375 -5.796875 C 1.539062 -5.328125 1.375 -4.648438 1.34375 -3.765625 C 1.550781 -4.078125 1.8125 -4.304688 2.125 -4.453125 C 2.414062 -4.585938 2.742188 -4.65625 3.109375 -4.65625 C 3.710938 -4.65625 4.238281 -4.457031 4.6875 -4.0625 C 5.144531 -3.675781 5.375 -3.097656 5.375 -2.328125 C 5.375 -1.671875 5.160156 -1.085938 4.734375 -0.578125 C 4.304688 -0.0664062 3.691406 0.1875 2.890625 0.1875 C 2.210938 0.1875 1.625 -0.0664062 1.125 -0.578125 C 0.632812 -1.097656 0.390625 -1.972656 0.390625 -3.203125 C 0.390625 -4.097656 0.5 -4.863281 0.71875 -5.5 C 1.144531 -6.707031 1.921875 -7.3125 3.046875 -7.3125 Z M 2.984375 -0.625 C 3.460938 -0.625 3.820312 -0.785156 4.0625 -1.109375 C 4.300781 -1.429688 4.421875 -1.8125 4.421875 -2.25 C 4.421875 -2.625 4.3125 -2.976562 4.09375 -3.3125 C 3.882812 -3.65625 3.5 -3.828125 2.9375 -3.828125 C 2.539062 -3.828125 2.191406 -3.695312 1.890625 -3.4375 C 1.597656 -3.175781 1.453125 -2.78125 1.453125 -2.25 C 1.453125 -1.789062 1.585938 -1.40625 1.859375 -1.09375 C 2.128906 -0.78125 2.503906 -0.625 2.984375 -0.625 Z M 2.984375 -0.625 "/>
</g>
<g id="glyph-1-5">
<path d="M 5.4375 -7.15625 L 5.4375 -6.359375 C 5.207031 -6.128906 4.894531 -5.734375 4.5 -5.171875 C 4.113281 -4.609375 3.773438 -4.003906 3.484375 -3.359375 C 3.179688 -2.722656 2.957031 -2.144531 2.8125 -1.625 C 2.707031 -1.289062 2.578125 -0.75 2.421875 0 L 1.421875 0 C 1.648438 -1.382812 2.15625 -2.765625 2.9375 -4.140625 C 3.40625 -4.953125 3.894531 -5.648438 4.40625 -6.234375 L 0.375 -6.234375 L 0.375 -7.15625 Z M 5.4375 -7.15625 "/>
</g>
<g id="glyph-1-6">
<path d="M 2.828125 -4.234375 C 3.234375 -4.234375 3.546875 -4.34375 3.765625 -4.5625 C 3.992188 -4.789062 4.109375 -5.0625 4.109375 -5.375 C 4.109375 -5.644531 4 -5.890625 3.78125 -6.109375 C 3.570312 -6.335938 3.242188 -6.453125 2.796875 -6.453125 C 2.359375 -6.453125 2.039062 -6.335938 1.84375 -6.109375 C 1.644531 -5.890625 1.546875 -5.625 1.546875 -5.3125 C 1.546875 -4.976562 1.671875 -4.710938 1.921875 -4.515625 C 2.179688 -4.328125 2.484375 -4.234375 2.828125 -4.234375 Z M 2.890625 -0.625 C 3.304688 -0.625 3.65625 -0.738281 3.9375 -0.96875 C 4.21875 -1.195312 4.359375 -1.535156 4.359375 -1.984375 C 4.359375 -2.460938 4.210938 -2.820312 3.921875 -3.0625 C 3.640625 -3.3125 3.269531 -3.4375 2.8125 -3.4375 C 2.382812 -3.4375 2.03125 -3.3125 1.75 -3.0625 C 1.476562 -2.8125 1.34375 -2.460938 1.34375 -2.015625 C 1.34375 -1.640625 1.46875 -1.3125 1.71875 -1.03125 C 1.96875 -0.757812 2.359375 -0.625 2.890625 -0.625 Z M 1.578125 -3.875 C 1.328125 -3.988281 1.128906 -4.117188 0.984375 -4.265625 C 0.722656 -4.535156 0.59375 -4.882812 0.59375 -5.3125 C 0.59375 -5.851562 0.785156 -6.316406 1.171875 -6.703125 C 1.566406 -7.097656 2.125 -7.296875 2.84375 -7.296875 C 3.539062 -7.296875 4.085938 -7.109375 4.484375 -6.734375 C 4.890625 -6.367188 5.09375 -5.941406 5.09375 -5.453125 C 5.09375 -5.003906 4.972656 -4.640625 4.734375 -4.359375 C 4.609375 -4.191406 4.410156 -4.035156 4.140625 -3.890625 C 4.441406 -3.742188 4.679688 -3.582031 4.859375 -3.40625 C 5.171875 -3.070312 5.328125 -2.632812 5.328125 -2.09375 C 5.328125 -1.445312 5.113281 -0.898438 4.6875 -0.453125 C 4.257812 -0.015625 3.648438 0.203125 2.859375 0.203125 C 2.148438 0.203125 1.550781 0.0117188 1.0625 -0.359375 C 0.570312 -0.742188 0.328125 -1.304688 0.328125 -2.046875 C 0.328125 -2.472656 0.429688 -2.84375 0.640625 -3.15625 C 0.859375 -3.46875 1.171875 -3.707031 1.578125 -3.875 Z M 1.578125 -3.875 "/>
</g>
<g id="glyph-1-7">
<path d="M 0.328125 0 C 0.359375 -0.625 0.484375 -1.164062 0.703125 -1.625 C 0.929688 -2.09375 1.375 -2.519531 2.03125 -2.90625 L 3.015625 -3.46875 C 3.441406 -3.71875 3.742188 -3.929688 3.921875 -4.109375 C 4.203125 -4.390625 4.34375 -4.710938 4.34375 -5.078125 C 4.34375 -5.503906 4.210938 -5.84375 3.953125 -6.09375 C 3.703125 -6.34375 3.367188 -6.46875 2.953125 -6.46875 C 2.316406 -6.46875 1.878906 -6.226562 1.640625 -5.75 C 1.515625 -5.5 1.445312 -5.144531 1.4375 -4.6875 L 0.5 -4.6875 C 0.507812 -5.320312 0.628906 -5.84375 0.859375 -6.25 C 1.253906 -6.945312 1.953125 -7.296875 2.953125 -7.296875 C 3.785156 -7.296875 4.394531 -7.070312 4.78125 -6.625 C 5.164062 -6.175781 5.359375 -5.675781 5.359375 -5.125 C 5.359375 -4.539062 5.148438 -4.039062 4.734375 -3.625 C 4.503906 -3.382812 4.082031 -3.09375 3.46875 -2.75 L 2.765625 -2.375 C 2.429688 -2.1875 2.171875 -2.007812 1.984375 -1.84375 C 1.648438 -1.550781 1.4375 -1.222656 1.34375 -0.859375 L 5.3125 -0.859375 L 5.3125 0 Z M 0.328125 0 "/>
</g>
<g id="glyph-1-8">
<path d="M 3.4375 -2.578125 L 3.4375 -5.875 L 1.109375 -2.578125 Z M 3.453125 0 L 3.453125 -1.78125 L 0.265625 -1.78125 L 0.265625 -2.671875 L 3.59375 -7.296875 L 4.375 -7.296875 L 4.375 -2.578125 L 5.4375 -2.578125 L 5.4375 -1.78125 L 4.375 -1.78125 L 4.375 0 Z M 3.453125 0 "/>
</g>
<g id="glyph-1-9">
<path d="M 0.890625 -7.46875 L 4.25 -7.46875 C 4.914062 -7.46875 5.453125 -7.28125 5.859375 -6.90625 C 6.265625 -6.53125 6.46875 -6.003906 6.46875 -5.328125 C 6.46875 -4.742188 6.285156 -4.234375 5.921875 -3.796875 C 5.554688 -3.367188 5 -3.15625 4.25 -3.15625 L 1.90625 -3.15625 L 1.90625 0 L 0.890625 0 Z M 5.4375 -5.3125 C 5.4375 -5.863281 5.234375 -6.238281 4.828125 -6.4375 C 4.609375 -6.539062 4.300781 -6.59375 3.90625 -6.59375 L 1.90625 -6.59375 L 1.90625 -4.015625 L 3.90625 -4.015625 C 4.363281 -4.015625 4.734375 -4.109375 5.015625 -4.296875 C 5.296875 -4.492188 5.4375 -4.832031 5.4375 -5.3125 Z M 5.4375 -5.3125 "/>
</g>
<g id="glyph-1-10">
<path d="M 2.828125 -0.59375 C 3.429688 -0.59375 3.847656 -0.820312 4.078125 -1.28125 C 4.304688 -1.738281 4.421875 -2.25 4.421875 -2.8125 C 4.421875 -3.320312 4.335938 -3.734375 4.171875 -4.046875 C 3.910156 -4.546875 3.46875 -4.796875 2.84375 -4.796875 C 2.28125 -4.796875 1.867188 -4.582031 1.609375 -4.15625 C 1.359375 -3.726562 1.234375 -3.210938 1.234375 -2.609375 C 1.234375 -2.035156 1.359375 -1.554688 1.609375 -1.171875 C 1.867188 -0.785156 2.273438 -0.59375 2.828125 -0.59375 Z M 2.859375 -5.59375 C 3.566406 -5.59375 4.160156 -5.359375 4.640625 -4.890625 C 5.128906 -4.429688 5.375 -3.742188 5.375 -2.828125 C 5.375 -1.953125 5.160156 -1.226562 4.734375 -0.65625 C 4.304688 -0.0820312 3.644531 0.203125 2.75 0.203125 C 2 0.203125 1.398438 -0.0507812 0.953125 -0.5625 C 0.515625 -1.070312 0.296875 -1.753906 0.296875 -2.609375 C 0.296875 -3.515625 0.523438 -4.238281 0.984375 -4.78125 C 1.453125 -5.320312 2.078125 -5.59375 2.859375 -5.59375 Z M 2.828125 -5.578125 Z M 2.828125 -5.578125 "/>
</g>
<g id="glyph-1-11">
<path d="M 1.578125 -5.4375 L 1.578125 -1.828125 C 1.578125 -1.546875 1.625 -1.316406 1.71875 -1.140625 C 1.882812 -0.816406 2.1875 -0.65625 2.625 -0.65625 C 3.257812 -0.65625 3.691406 -0.941406 3.921875 -1.515625 C 4.046875 -1.816406 4.109375 -2.234375 4.109375 -2.765625 L 4.109375 -5.4375 L 5.03125 -5.4375 L 5.03125 0 L 4.171875 0 L 4.171875 -0.796875 C 4.054688 -0.597656 3.910156 -0.425781 3.734375 -0.28125 C 3.390625 0 2.96875 0.140625 2.46875 0.140625 C 1.6875 0.140625 1.15625 -0.113281 0.875 -0.625 C 0.726562 -0.90625 0.65625 -1.28125 0.65625 -1.75 L 0.65625 -5.4375 Z M 2.84375 -5.578125 Z M 2.84375 -5.578125 "/>
</g>
<g id="glyph-1-12">
<path d="M 1.125 -5.4375 L 2.578125 -1.015625 L 4.09375 -5.4375 L 5.09375 -5.4375 L 3.03125 0 L 2.0625 0 L 0.0625 -5.4375 Z M 1.125 -5.4375 "/>
</g>
<g id="glyph-1-13">
<path d="M 0.671875 -5.421875 L 1.59375 -5.421875 L 1.59375 0 L 0.671875 0 Z M 0.671875 -7.46875 L 1.59375 -7.46875 L 1.59375 -6.421875 L 0.671875 -6.421875 Z M 0.671875 -7.46875 "/>
</g>
<g id="glyph-1-14">
<path d="M 0.703125 -5.4375 L 1.5625 -5.4375 L 1.5625 -4.5 C 1.632812 -4.6875 1.804688 -4.910156 2.078125 -5.171875 C 2.359375 -5.429688 2.679688 -5.5625 3.046875 -5.5625 C 3.066406 -5.5625 3.097656 -5.554688 3.140625 -5.546875 C 3.179688 -5.546875 3.25 -5.539062 3.34375 -5.53125 L 3.34375 -4.578125 C 3.289062 -4.585938 3.238281 -4.59375 3.1875 -4.59375 C 3.144531 -4.59375 3.097656 -4.59375 3.046875 -4.59375 C 2.585938 -4.59375 2.234375 -4.441406 1.984375 -4.140625 C 1.734375 -3.847656 1.609375 -3.507812 1.609375 -3.125 L 1.609375 0 L 0.703125 0 Z M 0.703125 -5.4375 "/>
</g>
<g id="glyph-1-15">
</g>
<g id="glyph-1-16">
<path d="M 1.25 -2.65625 C 1.25 -2.070312 1.367188 -1.582031 1.609375 -1.1875 C 1.859375 -0.800781 2.257812 -0.609375 2.8125 -0.609375 C 3.226562 -0.609375 3.570312 -0.789062 3.84375 -1.15625 C 4.125 -1.519531 4.265625 -2.039062 4.265625 -2.71875 C 4.265625 -3.40625 4.125 -3.910156 3.84375 -4.234375 C 3.5625 -4.566406 3.210938 -4.734375 2.796875 -4.734375 C 2.335938 -4.734375 1.960938 -4.554688 1.671875 -4.203125 C 1.390625 -3.859375 1.25 -3.34375 1.25 -2.65625 Z M 2.625 -5.53125 C 3.039062 -5.53125 3.390625 -5.445312 3.671875 -5.28125 C 3.835938 -5.175781 4.023438 -4.992188 4.234375 -4.734375 L 4.234375 -7.484375 L 5.109375 -7.484375 L 5.109375 0 L 4.28125 0 L 4.28125 -0.75 C 4.070312 -0.414062 3.820312 -0.175781 3.53125 -0.03125 C 3.238281 0.113281 2.90625 0.1875 2.53125 0.1875 C 1.914062 0.1875 1.382812 -0.0664062 0.9375 -0.578125 C 0.5 -1.085938 0.28125 -1.765625 0.28125 -2.609375 C 0.28125 -3.398438 0.484375 -4.082031 0.890625 -4.65625 C 1.296875 -5.238281 1.875 -5.53125 2.625 -5.53125 Z M 2.625 -5.53125 "/>
</g>
<g id="glyph-1-17">
<path d="M 2.9375 -5.5625 C 3.320312 -5.5625 3.695312 -5.46875 4.0625 -5.28125 C 4.425781 -5.101562 4.703125 -4.875 4.890625 -4.59375 C 5.066406 -4.3125 5.1875 -3.988281 5.25 -3.625 C 5.300781 -3.375 5.328125 -2.972656 5.328125 -2.421875 L 1.34375 -2.421875 C 1.363281 -1.867188 1.492188 -1.425781 1.734375 -1.09375 C 1.984375 -0.757812 2.363281 -0.59375 2.875 -0.59375 C 3.351562 -0.59375 3.734375 -0.753906 4.015625 -1.078125 C 4.179688 -1.253906 4.296875 -1.460938 4.359375 -1.703125 L 5.265625 -1.703125 C 5.234375 -1.503906 5.148438 -1.28125 5.015625 -1.03125 C 4.890625 -0.789062 4.742188 -0.59375 4.578125 -0.4375 C 4.296875 -0.164062 3.953125 0.015625 3.546875 0.109375 C 3.328125 0.160156 3.078125 0.1875 2.796875 0.1875 C 2.117188 0.1875 1.539062 -0.0546875 1.0625 -0.546875 C 0.59375 -1.035156 0.359375 -1.722656 0.359375 -2.609375 C 0.359375 -3.484375 0.59375 -4.191406 1.0625 -4.734375 C 1.539062 -5.285156 2.164062 -5.5625 2.9375 -5.5625 Z M 4.390625 -3.15625 C 4.359375 -3.550781 4.273438 -3.867188 4.140625 -4.109375 C 3.890625 -4.546875 3.46875 -4.765625 2.875 -4.765625 C 2.457031 -4.765625 2.101562 -4.613281 1.8125 -4.3125 C 1.53125 -4.007812 1.382812 -3.625 1.375 -3.15625 Z M 2.84375 -5.578125 Z M 2.84375 -5.578125 "/>
</g>
<g id="glyph-1-18">
<path d="M 1.21875 -1.703125 C 1.238281 -1.398438 1.3125 -1.164062 1.4375 -1 C 1.664062 -0.707031 2.066406 -0.5625 2.640625 -0.5625 C 2.984375 -0.5625 3.28125 -0.632812 3.53125 -0.78125 C 3.789062 -0.925781 3.921875 -1.15625 3.921875 -1.46875 C 3.921875 -1.695312 3.816406 -1.875 3.609375 -2 C 3.484375 -2.070312 3.222656 -2.160156 2.828125 -2.265625 L 2.109375 -2.4375 C 1.640625 -2.550781 1.296875 -2.679688 1.078125 -2.828125 C 0.679688 -3.078125 0.484375 -3.421875 0.484375 -3.859375 C 0.484375 -4.367188 0.664062 -4.78125 1.03125 -5.09375 C 1.40625 -5.414062 1.910156 -5.578125 2.546875 -5.578125 C 3.359375 -5.578125 3.945312 -5.335938 4.3125 -4.859375 C 4.539062 -4.554688 4.648438 -4.226562 4.640625 -3.875 L 3.78125 -3.875 C 3.757812 -4.082031 3.6875 -4.269531 3.5625 -4.4375 C 3.351562 -4.675781 2.988281 -4.796875 2.46875 -4.796875 C 2.125 -4.796875 1.863281 -4.726562 1.6875 -4.59375 C 1.507812 -4.46875 1.421875 -4.296875 1.421875 -4.078125 C 1.421875 -3.835938 1.535156 -3.648438 1.765625 -3.515625 C 1.898438 -3.429688 2.101562 -3.351562 2.375 -3.28125 L 2.96875 -3.140625 C 3.625 -2.984375 4.066406 -2.828125 4.296875 -2.671875 C 4.648438 -2.441406 4.828125 -2.078125 4.828125 -1.578125 C 4.828125 -1.085938 4.640625 -0.664062 4.265625 -0.3125 C 3.898438 0.0273438 3.34375 0.203125 2.59375 0.203125 C 1.78125 0.203125 1.207031 0.0195312 0.875 -0.34375 C 0.539062 -0.707031 0.359375 -1.160156 0.328125 -1.703125 Z M 2.5625 -5.578125 Z M 2.5625 -5.578125 "/>
</g>
<g id="glyph-1-19">
<path d="M 0.671875 -5.4375 L 1.546875 -5.4375 L 1.546875 -4.671875 C 1.796875 -4.984375 2.066406 -5.207031 2.359375 -5.34375 C 2.648438 -5.488281 2.96875 -5.5625 3.3125 -5.5625 C 4.082031 -5.5625 4.609375 -5.289062 4.890625 -4.75 C 5.035156 -4.457031 5.109375 -4.035156 5.109375 -3.484375 L 5.109375 0 L 4.171875 0 L 4.171875 -3.4375 C 4.171875 -3.757812 4.125 -4.023438 4.03125 -4.234375 C 3.863281 -4.566406 3.566406 -4.734375 3.140625 -4.734375 C 2.921875 -4.734375 2.742188 -4.710938 2.609375 -4.671875 C 2.359375 -4.597656 2.140625 -4.453125 1.953125 -4.234375 C 1.796875 -4.046875 1.691406 -3.859375 1.640625 -3.671875 C 1.597656 -3.484375 1.578125 -3.207031 1.578125 -2.84375 L 1.578125 0 L 0.671875 0 Z M 2.8125 -5.578125 Z M 2.8125 -5.578125 "/>
</g>
<g id="glyph-1-20">
<path d="M 0.90625 -6.265625 C 0.914062 -6.648438 0.976562 -6.929688 1.09375 -7.109375 C 1.3125 -7.421875 1.722656 -7.578125 2.328125 -7.578125 C 2.390625 -7.578125 2.453125 -7.570312 2.515625 -7.5625 C 2.578125 -7.5625 2.644531 -7.554688 2.71875 -7.546875 L 2.71875 -6.71875 C 2.625 -6.726562 2.554688 -6.734375 2.515625 -6.734375 C 2.472656 -6.734375 2.429688 -6.734375 2.390625 -6.734375 C 2.117188 -6.734375 1.953125 -6.660156 1.890625 -6.515625 C 1.835938 -6.367188 1.8125 -6.003906 1.8125 -5.421875 L 2.71875 -5.421875 L 2.71875 -4.6875 L 1.796875 -4.6875 L 1.796875 0 L 0.90625 0 L 0.90625 -4.6875 L 0.140625 -4.6875 L 0.140625 -5.421875 L 0.90625 -5.421875 Z M 0.90625 -6.265625 "/>
</g>
<g id="glyph-1-21">
<path d="M 1.375 -1.453125 C 1.375 -1.179688 1.46875 -0.96875 1.65625 -0.8125 C 1.851562 -0.664062 2.082031 -0.59375 2.34375 -0.59375 C 2.664062 -0.59375 2.976562 -0.664062 3.28125 -0.8125 C 3.789062 -1.0625 4.046875 -1.46875 4.046875 -2.03125 L 4.046875 -2.765625 C 3.929688 -2.691406 3.785156 -2.628906 3.609375 -2.578125 C 3.429688 -2.535156 3.257812 -2.503906 3.09375 -2.484375 L 2.546875 -2.421875 C 2.210938 -2.378906 1.960938 -2.304688 1.796875 -2.203125 C 1.515625 -2.046875 1.375 -1.796875 1.375 -1.453125 Z M 3.59375 -3.296875 C 3.800781 -3.328125 3.941406 -3.414062 4.015625 -3.5625 C 4.046875 -3.644531 4.0625 -3.757812 4.0625 -3.90625 C 4.0625 -4.21875 3.953125 -4.441406 3.734375 -4.578125 C 3.515625 -4.722656 3.195312 -4.796875 2.78125 -4.796875 C 2.300781 -4.796875 1.960938 -4.671875 1.765625 -4.421875 C 1.648438 -4.273438 1.578125 -4.0625 1.546875 -3.78125 L 0.703125 -3.78125 C 0.710938 -4.445312 0.925781 -4.910156 1.34375 -5.171875 C 1.769531 -5.441406 2.257812 -5.578125 2.8125 -5.578125 C 3.445312 -5.578125 3.960938 -5.453125 4.359375 -5.203125 C 4.753906 -4.960938 4.953125 -4.582031 4.953125 -4.0625 L 4.953125 -0.9375 C 4.953125 -0.84375 4.972656 -0.765625 5.015625 -0.703125 C 5.054688 -0.648438 5.140625 -0.625 5.265625 -0.625 C 5.304688 -0.625 5.351562 -0.625 5.40625 -0.625 C 5.457031 -0.632812 5.507812 -0.644531 5.5625 -0.65625 L 5.5625 0.03125 C 5.414062 0.0703125 5.304688 0.09375 5.234375 0.09375 C 5.160156 0.101562 5.0625 0.109375 4.9375 0.109375 C 4.625 0.109375 4.394531 0 4.25 -0.21875 C 4.175781 -0.332031 4.125 -0.5 4.09375 -0.71875 C 3.90625 -0.476562 3.632812 -0.265625 3.28125 -0.078125 C 2.9375 0.0976562 2.554688 0.1875 2.140625 0.1875 C 1.628906 0.1875 1.210938 0.0351562 0.890625 -0.265625 C 0.578125 -0.578125 0.421875 -0.960938 0.421875 -1.421875 C 0.421875 -1.929688 0.578125 -2.320312 0.890625 -2.59375 C 1.203125 -2.875 1.613281 -3.046875 2.125 -3.109375 Z M 2.828125 -5.578125 Z M 2.828125 -5.578125 "/>
</g>
<g id="glyph-1-22">
<path d="M 0.59375 -7.484375 L 1.484375 -7.484375 L 1.484375 -4.78125 C 1.679688 -5.039062 1.921875 -5.238281 2.203125 -5.375 C 2.484375 -5.507812 2.785156 -5.578125 3.109375 -5.578125 C 3.785156 -5.578125 4.332031 -5.34375 4.75 -4.875 C 5.175781 -4.414062 5.390625 -3.734375 5.390625 -2.828125 C 5.390625 -1.960938 5.179688 -1.242188 4.765625 -0.671875 C 4.347656 -0.109375 3.769531 0.171875 3.03125 0.171875 C 2.613281 0.171875 2.265625 0.0703125 1.984375 -0.125 C 1.816406 -0.25 1.632812 -0.441406 1.4375 -0.703125 L 1.4375 0 L 0.59375 0 Z M 2.984375 -0.640625 C 3.472656 -0.640625 3.835938 -0.832031 4.078125 -1.21875 C 4.328125 -1.613281 4.453125 -2.132812 4.453125 -2.78125 C 4.453125 -3.351562 4.328125 -3.828125 4.078125 -4.203125 C 3.835938 -4.578125 3.476562 -4.765625 3 -4.765625 C 2.582031 -4.765625 2.21875 -4.609375 1.90625 -4.296875 C 1.59375 -3.992188 1.4375 -3.488281 1.4375 -2.78125 C 1.4375 -2.269531 1.5 -1.851562 1.625 -1.53125 C 1.863281 -0.9375 2.316406 -0.640625 2.984375 -0.640625 Z M 2.984375 -0.640625 "/>
</g>
<g id="glyph-1-23">
<path d="M 0.703125 -7.46875 L 1.609375 -7.46875 L 1.609375 0 L 0.703125 0 Z M 0.703125 -7.46875 "/>
</g>
<g id="glyph-1-24">
<path d="M 3.078125 -7.59375 C 2.546875 -6.550781 2.203125 -5.789062 2.046875 -5.3125 C 1.804688 -4.5625 1.6875 -3.703125 1.6875 -2.734375 C 1.6875 -1.753906 1.820312 -0.859375 2.09375 -0.046875 C 2.257812 0.460938 2.59375 1.1875 3.09375 2.125 L 2.484375 2.125 C 1.984375 1.351562 1.671875 0.859375 1.546875 0.640625 C 1.429688 0.429688 1.304688 0.144531 1.171875 -0.21875 C 0.984375 -0.71875 0.851562 -1.253906 0.78125 -1.828125 C 0.738281 -2.117188 0.71875 -2.398438 0.71875 -2.671875 C 0.71875 -3.671875 0.875 -4.5625 1.1875 -5.34375 C 1.394531 -5.84375 1.8125 -6.59375 2.4375 -7.59375 Z M 3.078125 -7.59375 "/>
</g>
<g id="glyph-1-25">
<path d="M 1.28125 -7.46875 L 2.6875 -1.390625 L 4.375 -7.46875 L 5.484375 -7.46875 L 7.171875 -1.390625 L 8.578125 -7.46875 L 9.671875 -7.46875 L 7.71875 0 L 6.65625 0 L 4.9375 -6.1875 L 3.203125 0 L 2.140625 0 L 0.1875 -7.46875 Z M 1.28125 -7.46875 "/>
</g>
<g id="glyph-1-26">
<path d="M 1.453125 -2.40625 C 1.472656 -1.976562 1.570312 -1.632812 1.75 -1.375 C 2.082031 -0.882812 2.675781 -0.640625 3.53125 -0.640625 C 3.90625 -0.640625 4.25 -0.691406 4.5625 -0.796875 C 5.164062 -1.003906 5.46875 -1.378906 5.46875 -1.921875 C 5.46875 -2.328125 5.34375 -2.617188 5.09375 -2.796875 C 4.832031 -2.960938 4.425781 -3.109375 3.875 -3.234375 L 2.859375 -3.46875 C 2.203125 -3.613281 1.738281 -3.773438 1.46875 -3.953125 C 0.988281 -4.265625 0.75 -4.734375 0.75 -5.359375 C 0.75 -6.023438 0.976562 -6.570312 1.4375 -7 C 1.90625 -7.4375 2.566406 -7.65625 3.421875 -7.65625 C 4.203125 -7.65625 4.863281 -7.460938 5.40625 -7.078125 C 5.957031 -6.703125 6.234375 -6.101562 6.234375 -5.28125 L 5.28125 -5.28125 C 5.226562 -5.675781 5.117188 -5.976562 4.953125 -6.1875 C 4.648438 -6.582031 4.128906 -6.78125 3.390625 -6.78125 C 2.796875 -6.78125 2.367188 -6.65625 2.109375 -6.40625 C 1.847656 -6.15625 1.71875 -5.863281 1.71875 -5.53125 C 1.71875 -5.164062 1.867188 -4.894531 2.171875 -4.71875 C 2.367188 -4.613281 2.820312 -4.476562 3.53125 -4.3125 L 4.578125 -4.078125 C 5.078125 -3.960938 5.460938 -3.804688 5.734375 -3.609375 C 6.210938 -3.253906 6.453125 -2.75 6.453125 -2.09375 C 6.453125 -1.257812 6.148438 -0.664062 5.546875 -0.3125 C 4.953125 0.0390625 4.253906 0.21875 3.453125 0.21875 C 2.523438 0.21875 1.800781 -0.0195312 1.28125 -0.5 C 0.75 -0.96875 0.488281 -1.601562 0.5 -2.40625 Z M 3.5 -7.671875 Z M 3.5 -7.671875 "/>
</g>
<g id="glyph-1-27">
<path d="M 1 -5.15625 L 1 -5.859375 C 1.65625 -5.921875 2.113281 -6.023438 2.375 -6.171875 C 2.632812 -6.328125 2.832031 -6.6875 2.96875 -7.25 L 3.6875 -7.25 L 3.6875 0 L 2.703125 0 L 2.703125 -5.15625 Z M 1 -5.15625 "/>
</g>
<g id="glyph-1-28">
<path d="M 0.359375 2.125 C 0.898438 1.070312 1.25 0.304688 1.40625 -0.171875 C 1.644531 -0.898438 1.765625 -1.753906 1.765625 -2.734375 C 1.765625 -3.710938 1.625 -4.609375 1.34375 -5.421875 C 1.175781 -5.921875 0.84375 -6.644531 0.34375 -7.59375 L 0.953125 -7.59375 C 1.484375 -6.757812 1.800781 -6.242188 1.90625 -6.046875 C 2.019531 -5.847656 2.140625 -5.578125 2.265625 -5.234375 C 2.429688 -4.816406 2.546875 -4.398438 2.609375 -3.984375 C 2.679688 -3.566406 2.71875 -3.171875 2.71875 -2.796875 C 2.71875 -1.785156 2.554688 -0.890625 2.234375 -0.109375 C 2.035156 0.398438 1.625 1.144531 1 2.125 Z M 0.359375 2.125 "/>
</g>
<g id="glyph-1-29">
<path d="M 0.859375 -6.96875 L 1.78125 -6.96875 L 1.78125 -5.4375 L 2.640625 -5.4375 L 2.640625 -4.6875 L 1.78125 -4.6875 L 1.78125 -1.140625 C 1.78125 -0.953125 1.84375 -0.828125 1.96875 -0.765625 C 2.039062 -0.722656 2.160156 -0.703125 2.328125 -0.703125 C 2.367188 -0.703125 2.414062 -0.703125 2.46875 -0.703125 C 2.519531 -0.710938 2.578125 -0.71875 2.640625 -0.71875 L 2.640625 0 C 2.535156 0.03125 2.425781 0.0507812 2.3125 0.0625 C 2.207031 0.0820312 2.085938 0.09375 1.953125 0.09375 C 1.523438 0.09375 1.234375 -0.015625 1.078125 -0.234375 C 0.929688 -0.453125 0.859375 -0.738281 0.859375 -1.09375 L 0.859375 -4.6875 L 0.109375 -4.6875 L 0.109375 -5.4375 L 0.859375 -5.4375 Z M 0.859375 -6.96875 "/>
</g>
<g id="glyph-2-0">
<path d="M 0.984375 -9.359375 L 8.515625 -9.359375 L 8.515625 0 L 0.984375 0 Z M 7.34375 -1.171875 L 7.34375 -8.1875 L 2.140625 -8.1875 L 2.140625 -1.171875 Z M 7.34375 -1.171875 "/>
</g>
<g id="glyph-2-1">
<path d="M 7.78125 -9.359375 L 7.78125 -7.703125 L 4.984375 -7.703125 L 4.984375 0 L 3.015625 0 L 3.015625 -7.703125 L 0.203125 -7.703125 L 0.203125 -9.359375 Z M 7.78125 -9.359375 "/>
</g>
<g id="glyph-2-2">
<path d="M 1.109375 -6.171875 C 1.585938 -6.773438 2.40625 -7.078125 3.5625 -7.078125 C 4.320312 -7.078125 5 -6.929688 5.59375 -6.640625 C 6.175781 -6.335938 6.46875 -5.769531 6.46875 -4.9375 L 6.46875 -1.765625 C 6.46875 -1.535156 6.472656 -1.265625 6.484375 -0.953125 C 6.492188 -0.722656 6.523438 -0.5625 6.578125 -0.46875 C 6.640625 -0.382812 6.734375 -0.316406 6.859375 -0.265625 L 6.859375 0 L 4.890625 0 C 4.835938 -0.132812 4.796875 -0.265625 4.765625 -0.390625 C 4.742188 -0.515625 4.726562 -0.65625 4.71875 -0.8125 C 4.46875 -0.539062 4.179688 -0.3125 3.859375 -0.125 C 3.472656 0.101562 3.035156 0.21875 2.546875 0.21875 C 1.910156 0.21875 1.390625 0.0390625 0.984375 -0.3125 C 0.578125 -0.675781 0.375 -1.1875 0.375 -1.84375 C 0.375 -2.6875 0.703125 -3.300781 1.359375 -3.6875 C 1.710938 -3.894531 2.242188 -4.039062 2.953125 -4.125 L 3.5625 -4.203125 C 3.894531 -4.242188 4.132812 -4.300781 4.28125 -4.375 C 4.539062 -4.476562 4.671875 -4.644531 4.671875 -4.875 C 4.671875 -5.164062 4.570312 -5.363281 4.375 -5.46875 C 4.175781 -5.570312 3.882812 -5.625 3.5 -5.625 C 3.070312 -5.625 2.769531 -5.519531 2.59375 -5.3125 C 2.46875 -5.15625 2.382812 -4.941406 2.34375 -4.671875 L 0.59375 -4.671875 C 0.632812 -5.285156 0.804688 -5.785156 1.109375 -6.171875 Z M 2.453125 -1.3125 C 2.617188 -1.164062 2.828125 -1.09375 3.078125 -1.09375 C 3.460938 -1.09375 3.816406 -1.207031 4.140625 -1.4375 C 4.472656 -1.664062 4.644531 -2.082031 4.65625 -2.6875 L 4.65625 -3.359375 C 4.539062 -3.285156 4.425781 -3.226562 4.3125 -3.1875 C 4.195312 -3.144531 4.035156 -3.101562 3.828125 -3.0625 L 3.421875 -2.984375 C 3.046875 -2.921875 2.773438 -2.84375 2.609375 -2.75 C 2.328125 -2.582031 2.1875 -2.320312 2.1875 -1.96875 C 2.1875 -1.664062 2.273438 -1.445312 2.453125 -1.3125 Z M 2.453125 -1.3125 "/>
</g>
<g id="glyph-2-3">
<path d="M 5.28125 -0.984375 C 5.257812 -0.960938 5.210938 -0.894531 5.140625 -0.78125 C 5.078125 -0.675781 5 -0.585938 4.90625 -0.515625 C 4.625 -0.253906 4.347656 -0.078125 4.078125 0.015625 C 3.816406 0.109375 3.507812 0.15625 3.15625 0.15625 C 2.132812 0.15625 1.445312 -0.210938 1.09375 -0.953125 C 0.894531 -1.359375 0.796875 -1.957031 0.796875 -2.75 L 0.796875 -6.921875 L 2.640625 -6.921875 L 2.640625 -2.75 C 2.640625 -2.351562 2.6875 -2.054688 2.78125 -1.859375 C 2.945312 -1.503906 3.273438 -1.328125 3.765625 -1.328125 C 4.378906 -1.328125 4.800781 -1.578125 5.03125 -2.078125 C 5.144531 -2.347656 5.203125 -2.707031 5.203125 -3.15625 L 5.203125 -6.921875 L 7.046875 -6.921875 L 7.046875 0 L 5.28125 0 Z M 5.28125 -0.984375 "/>
</g>
<g id="glyph-2-4">
<path d="M 7.015625 0 L 4.75 0 L 3.5625 -2.078125 L 2.359375 0 L 0.171875 0 L 2.53125 -3.5 L 0.265625 -6.90625 L 2.484375 -6.90625 L 3.640625 -4.90625 L 4.765625 -6.90625 L 6.921875 -6.90625 L 4.640625 -3.53125 Z M 7.015625 0 "/>
</g>
<g id="glyph-2-5">
</g>
<g id="glyph-2-6">
<path d="M 7.140625 -9.34375 L 7.140625 0 L 5.390625 0 L 5.390625 -0.953125 C 5.128906 -0.546875 4.832031 -0.25 4.5 -0.0625 C 4.164062 0.121094 3.753906 0.21875 3.265625 0.21875 C 2.460938 0.21875 1.785156 -0.109375 1.234375 -0.765625 C 0.679688 -1.421875 0.40625 -2.257812 0.40625 -3.28125 C 0.40625 -4.457031 0.675781 -5.382812 1.21875 -6.0625 C 1.757812 -6.738281 2.484375 -7.078125 3.390625 -7.078125 C 3.816406 -7.078125 4.191406 -6.984375 4.515625 -6.796875 C 4.835938 -6.617188 5.101562 -6.367188 5.3125 -6.046875 L 5.3125 -9.34375 Z M 2.265625 -3.421875 C 2.265625 -2.773438 2.390625 -2.265625 2.640625 -1.890625 C 2.890625 -1.503906 3.273438 -1.3125 3.796875 -1.3125 C 4.304688 -1.3125 4.691406 -1.5 4.953125 -1.875 C 5.222656 -2.257812 5.359375 -2.753906 5.359375 -3.359375 C 5.359375 -4.203125 5.144531 -4.804688 4.71875 -5.171875 C 4.457031 -5.390625 4.148438 -5.5 3.796875 -5.5 C 3.273438 -5.5 2.890625 -5.296875 2.640625 -4.890625 C 2.390625 -4.492188 2.265625 -4.003906 2.265625 -3.421875 Z M 2.265625 -3.421875 "/>
</g>
<g id="glyph-2-7">
<path d="M 6.765625 -2.03125 C 6.722656 -1.625 6.507812 -1.207031 6.125 -0.78125 C 5.53125 -0.101562 4.703125 0.234375 3.640625 0.234375 C 2.753906 0.234375 1.972656 -0.046875 1.296875 -0.609375 C 0.628906 -1.179688 0.296875 -2.109375 0.296875 -3.390625 C 0.296875 -4.585938 0.597656 -5.503906 1.203125 -6.140625 C 1.816406 -6.785156 2.609375 -7.109375 3.578125 -7.109375 C 4.148438 -7.109375 4.664062 -7 5.125 -6.78125 C 5.59375 -6.5625 5.972656 -6.21875 6.265625 -5.75 C 6.535156 -5.34375 6.710938 -4.867188 6.796875 -4.328125 C 6.847656 -4.015625 6.867188 -3.554688 6.859375 -2.953125 L 2.125 -2.953125 C 2.144531 -2.265625 2.363281 -1.78125 2.78125 -1.5 C 3.03125 -1.320312 3.328125 -1.234375 3.671875 -1.234375 C 4.046875 -1.234375 4.347656 -1.34375 4.578125 -1.5625 C 4.710938 -1.675781 4.828125 -1.832031 4.921875 -2.03125 Z M 4.984375 -4.15625 C 4.953125 -4.632812 4.804688 -4.992188 4.546875 -5.234375 C 4.285156 -5.484375 3.960938 -5.609375 3.578125 -5.609375 C 3.160156 -5.609375 2.832031 -5.476562 2.59375 -5.21875 C 2.363281 -4.957031 2.222656 -4.601562 2.171875 -4.15625 Z M 4.984375 -4.15625 "/>
</g>
<g id="glyph-2-8">
<path d="M 6.828125 -4.4375 L 4.984375 -4.4375 C 4.941406 -4.695312 4.851562 -4.929688 4.71875 -5.140625 C 4.507812 -5.410156 4.191406 -5.546875 3.765625 -5.546875 C 3.160156 -5.546875 2.742188 -5.242188 2.515625 -4.640625 C 2.398438 -4.328125 2.34375 -3.898438 2.34375 -3.359375 C 2.34375 -2.859375 2.398438 -2.453125 2.515625 -2.140625 C 2.734375 -1.566406 3.140625 -1.28125 3.734375 -1.28125 C 4.160156 -1.28125 4.460938 -1.394531 4.640625 -1.625 C 4.816406 -1.851562 4.925781 -2.144531 4.96875 -2.5 L 6.8125 -2.5 C 6.769531 -1.957031 6.570312 -1.441406 6.21875 -0.953125 C 5.644531 -0.160156 4.800781 0.234375 3.6875 0.234375 C 2.582031 0.234375 1.765625 -0.09375 1.234375 -0.75 C 0.710938 -1.40625 0.453125 -2.257812 0.453125 -3.3125 C 0.453125 -4.507812 0.738281 -5.4375 1.3125 -6.09375 C 1.894531 -6.75 2.695312 -7.078125 3.71875 -7.078125 C 4.582031 -7.078125 5.289062 -6.882812 5.84375 -6.5 C 6.394531 -6.113281 6.722656 -5.425781 6.828125 -4.4375 Z M 6.828125 -4.4375 "/>
</g>
<g id="glyph-2-9">
<path d="M 7.09375 -4.0625 L 7.09375 0 L 5.25 0 L 5.25 -4.203125 C 5.25 -4.578125 5.1875 -4.878906 5.0625 -5.109375 C 4.894531 -5.429688 4.582031 -5.59375 4.125 -5.59375 C 3.644531 -5.59375 3.28125 -5.429688 3.03125 -5.109375 C 2.78125 -4.796875 2.65625 -4.34375 2.65625 -3.75 L 2.65625 0 L 0.859375 0 L 0.859375 -9.328125 L 2.65625 -9.328125 L 2.65625 -6.015625 C 2.914062 -6.421875 3.21875 -6.703125 3.5625 -6.859375 C 3.914062 -7.015625 4.28125 -7.09375 4.65625 -7.09375 C 5.082031 -7.09375 5.46875 -7.019531 5.8125 -6.875 C 6.164062 -6.726562 6.457031 -6.503906 6.6875 -6.203125 C 6.875 -5.941406 6.988281 -5.671875 7.03125 -5.390625 C 7.070312 -5.117188 7.09375 -4.675781 7.09375 -4.0625 Z M 7.09375 -4.0625 "/>
</g>
<g id="glyph-2-10">
<path d="M 6.609375 -6.046875 C 7.191406 -5.304688 7.484375 -4.441406 7.484375 -3.453125 C 7.484375 -2.429688 7.191406 -1.5625 6.609375 -0.84375 C 6.023438 -0.125 5.140625 0.234375 3.953125 0.234375 C 2.765625 0.234375 1.878906 -0.125 1.296875 -0.84375 C 0.710938 -1.5625 0.421875 -2.429688 0.421875 -3.453125 C 0.421875 -4.441406 0.710938 -5.300781 1.296875 -6.03125 C 1.878906 -6.769531 2.765625 -7.140625 3.953125 -7.140625 C 5.140625 -7.140625 6.023438 -6.773438 6.609375 -6.046875 Z M 3.953125 -5.609375 C 3.421875 -5.609375 3.007812 -5.421875 2.71875 -5.046875 C 2.4375 -4.671875 2.296875 -4.140625 2.296875 -3.453125 C 2.296875 -2.753906 2.4375 -2.21875 2.71875 -1.84375 C 3.007812 -1.46875 3.421875 -1.28125 3.953125 -1.28125 C 4.472656 -1.28125 4.875 -1.46875 5.15625 -1.84375 C 5.445312 -2.21875 5.59375 -2.753906 5.59375 -3.453125 C 5.59375 -4.140625 5.445312 -4.671875 5.15625 -5.046875 C 4.875 -5.421875 4.472656 -5.609375 3.953125 -5.609375 Z M 3.140625 -9.75 L 4.765625 -9.75 L 6.25 -7.859375 L 4.78125 -7.859375 L 3.953125 -8.921875 L 3.125 -7.859375 L 1.65625 -7.859375 Z M 3.140625 -9.75 "/>
</g>
<g id="glyph-2-11">
<path d="M 4.734375 -5.015625 C 4.578125 -5.347656 4.273438 -5.515625 3.828125 -5.515625 C 3.316406 -5.515625 2.972656 -5.347656 2.796875 -5.015625 C 2.691406 -4.828125 2.640625 -4.546875 2.640625 -4.171875 L 2.640625 0 L 0.8125 0 L 0.8125 -6.90625 L 2.578125 -6.90625 L 2.578125 -5.890625 C 2.796875 -6.253906 3.003906 -6.515625 3.203125 -6.671875 C 3.554688 -6.941406 4.015625 -7.078125 4.578125 -7.078125 C 5.097656 -7.078125 5.523438 -6.957031 5.859375 -6.71875 C 6.117188 -6.507812 6.316406 -6.234375 6.453125 -5.890625 C 6.691406 -6.296875 6.984375 -6.59375 7.328125 -6.78125 C 7.703125 -6.976562 8.117188 -7.078125 8.578125 -7.078125 C 8.878906 -7.078125 9.175781 -7.015625 9.46875 -6.890625 C 9.769531 -6.773438 10.039062 -6.566406 10.28125 -6.265625 C 10.476562 -6.023438 10.609375 -5.734375 10.671875 -5.390625 C 10.710938 -5.148438 10.734375 -4.804688 10.734375 -4.359375 L 10.734375 0 L 8.875 0 L 8.875 -4.40625 C 8.875 -4.664062 8.832031 -4.878906 8.75 -5.046875 C 8.582031 -5.367188 8.285156 -5.53125 7.859375 -5.53125 C 7.359375 -5.53125 7.015625 -5.320312 6.828125 -4.90625 C 6.722656 -4.6875 6.671875 -4.425781 6.671875 -4.125 L 6.671875 0 L 4.859375 0 L 4.859375 -4.125 C 4.859375 -4.53125 4.816406 -4.828125 4.734375 -5.015625 Z M 4.734375 -5.015625 "/>
</g>
<g id="glyph-2-12">
<path d="M 2.796875 1.21875 C 2.992188 1.375 3.320312 1.453125 3.78125 1.453125 C 4.4375 1.453125 4.875 1.238281 5.09375 0.8125 C 5.238281 0.53125 5.3125 0.0546875 5.3125 -0.609375 L 5.3125 -1.046875 C 5.132812 -0.753906 4.945312 -0.53125 4.75 -0.375 C 4.382812 -0.101562 3.914062 0.03125 3.34375 0.03125 C 2.457031 0.03125 1.75 -0.28125 1.21875 -0.90625 C 0.6875 -1.53125 0.421875 -2.375 0.421875 -3.4375 C 0.421875 -4.46875 0.675781 -5.332031 1.1875 -6.03125 C 1.695312 -6.726562 2.421875 -7.078125 3.359375 -7.078125 C 3.710938 -7.078125 4.015625 -7.023438 4.265625 -6.921875 C 4.710938 -6.742188 5.070312 -6.410156 5.34375 -5.921875 L 5.34375 -6.921875 L 7.09375 -6.921875 L 7.09375 -0.359375 C 7.09375 0.535156 6.941406 1.207031 6.640625 1.65625 C 6.128906 2.4375 5.140625 2.828125 3.671875 2.828125 C 2.785156 2.828125 2.0625 2.65625 1.5 2.3125 C 0.945312 1.96875 0.640625 1.445312 0.578125 0.75 L 2.546875 0.75 C 2.597656 0.96875 2.679688 1.125 2.796875 1.21875 Z M 2.5 -2.359375 C 2.738281 -1.773438 3.175781 -1.484375 3.8125 -1.484375 C 4.238281 -1.484375 4.597656 -1.640625 4.890625 -1.953125 C 5.179688 -2.273438 5.328125 -2.785156 5.328125 -3.484375 C 5.328125 -4.140625 5.1875 -4.640625 4.90625 -4.984375 C 4.632812 -5.328125 4.265625 -5.5 3.796875 -5.5 C 3.160156 -5.5 2.722656 -5.203125 2.484375 -4.609375 C 2.359375 -4.285156 2.296875 -3.894531 2.296875 -3.4375 C 2.296875 -3.03125 2.363281 -2.671875 2.5 -2.359375 Z M 2.5 -2.359375 "/>
</g>
<g id="glyph-2-13">
<path d="M 2.828125 2.625 L 2.375 2 C 2.082031 1.632812 1.773438 1.082031 1.453125 0.34375 C 0.859375 -0.964844 0.5625 -2.265625 0.5625 -3.546875 C 0.5625 -4.703125 0.8125 -5.851562 1.3125 -7 C 1.644531 -7.769531 2.132812 -8.609375 2.78125 -9.515625 L 4.140625 -9.515625 L 3.75 -8.796875 C 3.21875 -7.816406 2.847656 -6.789062 2.640625 -5.71875 C 2.503906 -5.019531 2.4375 -4.253906 2.4375 -3.421875 C 2.4375 -2.128906 2.625 -0.941406 3 0.140625 C 3.21875 0.785156 3.609375 1.613281 4.171875 2.625 Z M 2.828125 2.625 "/>
</g>
<g id="glyph-2-14">
<path d="M 1.921875 2 L 1.46875 2.625 L 0.140625 2.625 C 0.691406 1.613281 1.078125 0.785156 1.296875 0.140625 C 1.671875 -0.941406 1.859375 -2.128906 1.859375 -3.421875 C 1.859375 -4.253906 1.789062 -5.019531 1.65625 -5.71875 C 1.457031 -6.789062 1.085938 -7.816406 0.546875 -8.796875 L 0.171875 -9.515625 L 1.53125 -9.515625 C 2.175781 -8.609375 2.664062 -7.769531 3 -7 C 3.488281 -5.851562 3.734375 -4.703125 3.734375 -3.546875 C 3.734375 -2.265625 3.441406 -0.964844 2.859375 0.34375 C 2.523438 1.082031 2.210938 1.632812 1.921875 2 Z M 1.921875 2 "/>
</g>
<g id="glyph-3-0">
<path d="M -9.359375 -0.984375 L -9.359375 -8.515625 L 0 -8.515625 L 0 -0.984375 Z M -1.171875 -7.34375 L -8.1875 -7.34375 L -8.1875 -2.140625 L -1.171875 -2.140625 Z M -1.171875 -7.34375 "/>
</g>
<g id="glyph-3-1">
<path d="M -1.359375 -4.390625 C -1.359375 -4.847656 -1.40625 -5.222656 -1.5 -5.515625 C -1.695312 -6.054688 -2.0625 -6.328125 -2.59375 -6.328125 C -2.894531 -6.328125 -3.132812 -6.191406 -3.3125 -5.921875 C -3.476562 -5.648438 -3.625 -5.222656 -3.75 -4.640625 L -3.96875 -3.65625 C -4.1875 -2.6875 -4.425781 -2.015625 -4.6875 -1.640625 C -5.113281 -1.003906 -5.785156 -0.6875 -6.703125 -0.6875 C -7.546875 -0.6875 -8.242188 -0.988281 -8.796875 -1.59375 C -9.347656 -2.207031 -9.625 -3.109375 -9.625 -4.296875 C -9.625 -5.273438 -9.363281 -6.113281 -8.84375 -6.8125 C -8.320312 -7.507812 -7.5625 -7.875 -6.5625 -7.90625 L -6.5625 -6.03125 C -7.132812 -6 -7.535156 -5.753906 -7.765625 -5.296875 C -7.921875 -4.992188 -8 -4.613281 -8 -4.15625 C -8 -3.65625 -7.894531 -3.253906 -7.6875 -2.953125 C -7.488281 -2.648438 -7.207031 -2.5 -6.84375 -2.5 C -6.507812 -2.5 -6.257812 -2.648438 -6.09375 -2.953125 C -5.988281 -3.140625 -5.863281 -3.546875 -5.71875 -4.171875 L -5.328125 -5.78125 C -5.160156 -6.488281 -4.929688 -7.019531 -4.640625 -7.375 C -4.203125 -7.9375 -3.566406 -8.21875 -2.734375 -8.21875 C -1.878906 -8.21875 -1.171875 -7.890625 -0.609375 -7.234375 C -0.046875 -6.578125 0.234375 -5.65625 0.234375 -4.46875 C 0.234375 -3.25 -0.0390625 -2.289062 -0.59375 -1.59375 C -1.144531 -0.894531 -1.910156 -0.546875 -2.890625 -0.546875 L -2.890625 -2.40625 C -2.460938 -2.46875 -2.144531 -2.582031 -1.9375 -2.75 C -1.550781 -3.070312 -1.359375 -3.617188 -1.359375 -4.390625 Z M -1.359375 -4.390625 "/>
</g>
<g id="glyph-3-2">
<path d="M -6.171875 -1.109375 C -6.773438 -1.585938 -7.078125 -2.40625 -7.078125 -3.5625 C -7.078125 -4.320312 -6.929688 -5 -6.640625 -5.59375 C -6.335938 -6.175781 -5.769531 -6.46875 -4.9375 -6.46875 L -1.765625 -6.46875 C -1.535156 -6.46875 -1.265625 -6.472656 -0.953125 -6.484375 C -0.722656 -6.492188 -0.5625 -6.523438 -0.46875 -6.578125 C -0.382812 -6.640625 -0.316406 -6.734375 -0.265625 -6.859375 L 0 -6.859375 L 0 -4.890625 C -0.132812 -4.835938 -0.265625 -4.796875 -0.390625 -4.765625 C -0.515625 -4.742188 -0.65625 -4.726562 -0.8125 -4.71875 C -0.539062 -4.46875 -0.3125 -4.179688 -0.125 -3.859375 C 0.101562 -3.472656 0.21875 -3.035156 0.21875 -2.546875 C 0.21875 -1.910156 0.0390625 -1.390625 -0.3125 -0.984375 C -0.675781 -0.578125 -1.1875 -0.375 -1.84375 -0.375 C -2.6875 -0.375 -3.300781 -0.703125 -3.6875 -1.359375 C -3.894531 -1.710938 -4.039062 -2.242188 -4.125 -2.953125 L -4.203125 -3.5625 C -4.242188 -3.894531 -4.300781 -4.132812 -4.375 -4.28125 C -4.476562 -4.539062 -4.644531 -4.671875 -4.875 -4.671875 C -5.164062 -4.671875 -5.363281 -4.570312 -5.46875 -4.375 C -5.570312 -4.175781 -5.625 -3.882812 -5.625 -3.5 C -5.625 -3.070312 -5.519531 -2.769531 -5.3125 -2.59375 C -5.15625 -2.46875 -4.941406 -2.382812 -4.671875 -2.34375 L -4.671875 -0.59375 C -5.285156 -0.632812 -5.785156 -0.804688 -6.171875 -1.109375 Z M -1.3125 -2.453125 C -1.164062 -2.617188 -1.09375 -2.828125 -1.09375 -3.078125 C -1.09375 -3.460938 -1.207031 -3.816406 -1.4375 -4.140625 C -1.664062 -4.472656 -2.082031 -4.644531 -2.6875 -4.65625 L -3.359375 -4.65625 C -3.285156 -4.539062 -3.226562 -4.425781 -3.1875 -4.3125 C -3.144531 -4.195312 -3.101562 -4.035156 -3.0625 -3.828125 L -2.984375 -3.421875 C -2.921875 -3.046875 -2.84375 -2.773438 -2.75 -2.609375 C -2.582031 -2.328125 -2.320312 -2.1875 -1.96875 -2.1875 C -1.664062 -2.1875 -1.445312 -2.273438 -1.3125 -2.453125 Z M -1.3125 -2.453125 "/>
</g>
<g id="glyph-3-3">
<path d="M -9.359375 -0.875 L -9.359375 -2.6875 L 0 -2.6875 L 0 -0.875 Z M -9.359375 -0.875 "/>
</g>
<g id="glyph-3-4">
<path d="M -6.921875 -2.703125 L 0 -2.703125 L 0 -0.875 L -6.921875 -0.875 Z M -9.40625 -2.703125 L -7.75 -2.703125 L -7.75 -0.875 L -9.40625 -0.875 Z M -9.40625 -2.703125 "/>
</g>
<g id="glyph-3-5">
<path d="M -5.25 -4.328125 C -5.25 -3.597656 -5.007812 -3.109375 -4.53125 -2.859375 C -4.269531 -2.710938 -3.863281 -2.640625 -3.3125 -2.640625 L 0 -2.640625 L 0 -0.828125 L -6.921875 -0.828125 L -6.921875 -2.546875 L -5.71875 -2.546875 C -6.175781 -2.828125 -6.488281 -3.070312 -6.65625 -3.28125 C -6.9375 -3.625 -7.078125 -4.066406 -7.078125 -4.609375 C -7.078125 -4.640625 -7.078125 -4.664062 -7.078125 -4.6875 C -7.078125 -4.707031 -7.078125 -4.757812 -7.078125 -4.84375 L -5.21875 -4.84375 C -5.226562 -4.726562 -5.234375 -4.625 -5.234375 -4.53125 C -5.242188 -4.445312 -5.25 -4.378906 -5.25 -4.328125 Z M -5.25 -4.328125 "/>
</g>
<g id="glyph-3-6">
<path d="M -2.03125 -6.765625 C -1.625 -6.722656 -1.207031 -6.507812 -0.78125 -6.125 C -0.101562 -5.53125 0.234375 -4.703125 0.234375 -3.640625 C 0.234375 -2.753906 -0.046875 -1.972656 -0.609375 -1.296875 C -1.179688 -0.628906 -2.109375 -0.296875 -3.390625 -0.296875 C -4.585938 -0.296875 -5.503906 -0.597656 -6.140625 -1.203125 C -6.785156 -1.816406 -7.109375 -2.609375 -7.109375 -3.578125 C -7.109375 -4.148438 -7 -4.664062 -6.78125 -5.125 C -6.5625 -5.59375 -6.21875 -5.972656 -5.75 -6.265625 C -5.34375 -6.535156 -4.867188 -6.710938 -4.328125 -6.796875 C -4.015625 -6.847656 -3.554688 -6.867188 -2.953125 -6.859375 L -2.953125 -2.125 C -2.265625 -2.144531 -1.78125 -2.363281 -1.5 -2.78125 C -1.320312 -3.03125 -1.234375 -3.328125 -1.234375 -3.671875 C -1.234375 -4.046875 -1.34375 -4.347656 -1.5625 -4.578125 C -1.675781 -4.710938 -1.832031 -4.828125 -2.03125 -4.921875 Z M -4.15625 -4.984375 C -4.632812 -4.953125 -4.992188 -4.804688 -5.234375 -4.546875 C -5.484375 -4.285156 -5.609375 -3.960938 -5.609375 -3.578125 C -5.609375 -3.160156 -5.476562 -2.832031 -5.21875 -2.59375 C -4.957031 -2.363281 -4.601562 -2.222656 -4.15625 -2.171875 Z M -4.15625 -4.984375 "/>
</g>
<g id="glyph-3-7">
</g>
<g id="glyph-3-8">
<path d="M -2.03125 -6.765625 C -1.625 -6.722656 -1.207031 -6.507812 -0.78125 -6.125 C -0.101562 -5.53125 0.234375 -4.703125 0.234375 -3.640625 C 0.234375 -2.753906 -0.046875 -1.972656 -0.609375 -1.296875 C -1.179688 -0.628906 -2.109375 -0.296875 -3.390625 -0.296875 C -4.585938 -0.296875 -5.503906 -0.597656 -6.140625 -1.203125 C -6.785156 -1.816406 -7.109375 -2.609375 -7.109375 -3.578125 C -7.109375 -4.148438 -7 -4.664062 -6.78125 -5.125 C -6.5625 -5.59375 -6.21875 -5.972656 -5.75 -6.265625 C -5.34375 -6.535156 -4.867188 -6.710938 -4.328125 -6.796875 C -4.015625 -6.847656 -3.554688 -6.867188 -2.953125 -6.859375 L -2.953125 -2.125 C -2.265625 -2.144531 -1.78125 -2.363281 -1.5 -2.78125 C -1.320312 -3.03125 -1.234375 -3.328125 -1.234375 -3.671875 C -1.234375 -4.046875 -1.34375 -4.347656 -1.5625 -4.578125 C -1.675781 -4.710938 -1.832031 -4.828125 -2.03125 -4.921875 Z M -4.15625 -4.984375 C -4.632812 -4.953125 -4.992188 -4.804688 -5.234375 -4.546875 C -5.484375 -4.285156 -5.609375 -3.960938 -5.609375 -3.578125 C -5.609375 -3.160156 -5.476562 -2.832031 -5.21875 -2.59375 C -4.957031 -2.363281 -4.601562 -2.222656 -4.15625 -2.171875 Z M -7.859375 -2.625 L -9.75 -3.84375 L -9.75 -5.859375 L -7.859375 -3.9375 Z M -7.859375 -2.625 "/>
</g>
<g id="glyph-3-9">
<path d="M 2.625 -2.828125 L 2 -2.375 C 1.632812 -2.082031 1.082031 -1.773438 0.34375 -1.453125 C -0.964844 -0.859375 -2.265625 -0.5625 -3.546875 -0.5625 C -4.703125 -0.5625 -5.851562 -0.8125 -7 -1.3125 C -7.769531 -1.644531 -8.609375 -2.132812 -9.515625 -2.78125 L -9.515625 -4.140625 L -8.796875 -3.75 C -7.816406 -3.21875 -6.789062 -2.847656 -5.71875 -2.640625 C -5.019531 -2.503906 -4.253906 -2.4375 -3.421875 -2.4375 C -2.128906 -2.4375 -0.941406 -2.625 0.140625 -3 C 0.785156 -3.21875 1.613281 -3.609375 2.625 -4.171875 Z M 2.625 -2.828125 "/>
</g>
<g id="glyph-3-10">
<path d="M 0 -6.09375 L -5.046875 -5.015625 L 0 -3.90625 L 0 -2.03125 L -6.921875 -0.09375 L -6.921875 -2.03125 L -1.953125 -3.109375 L -6.921875 -4.109375 L -6.921875 -5.9375 L -1.9375 -7 L -6.921875 -8.078125 L -6.921875 -9.953125 L 0 -7.953125 Z M 0 -6.09375 "/>
</g>
<g id="glyph-3-11">
<path d="M 0 0.71875 L -9.640625 -2.90625 L -9.640625 -4.421875 L 0 -0.78125 Z M 0 0.71875 "/>
</g>
<g id="glyph-3-12">
<path d="M -3.359375 -4.96875 L -3.359375 -2.984375 L 0 -2.984375 L 0 -1.03125 L -9.359375 -1.03125 L -9.359375 -5.109375 C -9.359375 -6.046875 -9.113281 -6.789062 -8.625 -7.34375 C -8.144531 -7.90625 -7.398438 -8.1875 -6.390625 -8.1875 C -5.285156 -8.1875 -4.503906 -7.90625 -4.046875 -7.34375 C -3.585938 -6.789062 -3.359375 -6 -3.359375 -4.96875 Z M -5.3125 -5.875 C -5.539062 -6.132812 -5.894531 -6.265625 -6.375 -6.265625 C -6.863281 -6.265625 -7.210938 -6.132812 -7.421875 -5.875 C -7.628906 -5.613281 -7.734375 -5.253906 -7.734375 -4.796875 L -7.734375 -2.984375 L -4.984375 -2.984375 L -4.984375 -4.796875 C -4.984375 -5.253906 -5.09375 -5.613281 -5.3125 -5.875 Z M -5.3125 -5.875 "/>
</g>
<g id="glyph-3-13">
<path d="M 2 -1.921875 L 2.625 -1.46875 L 2.625 -0.140625 C 1.613281 -0.691406 0.785156 -1.078125 0.140625 -1.296875 C -0.941406 -1.671875 -2.128906 -1.859375 -3.421875 -1.859375 C -4.253906 -1.859375 -5.019531 -1.789062 -5.71875 -1.65625 C -6.789062 -1.457031 -7.816406 -1.085938 -8.796875 -0.546875 L -9.515625 -0.171875 L -9.515625 -1.53125 C -8.609375 -2.175781 -7.769531 -2.664062 -7 -3 C -5.851562 -3.488281 -4.703125 -3.734375 -3.546875 -3.734375 C -2.265625 -3.734375 -0.964844 -3.441406 0.34375 -2.859375 C 1.082031 -2.523438 1.632812 -2.210938 2 -1.921875 Z M 2 -1.921875 "/>
</g>
</g>
<clipPath id="clip-0">
<path clip-rule="nonzero" d="M 43.042969 226 L 458.035156 226 L 458.035156 226.773438 L 43.042969 226.773438 Z M 43.042969 226 "/>
</clipPath>
<clipPath id="clip-1">
<path clip-rule="nonzero" d="M 43.042969 163 L 458.035156 163 L 458.035156 165 L 43.042969 165 Z M 43.042969 163 "/>
</clipPath>
<clipPath id="clip-2">
<path clip-rule="nonzero" d="M 43.042969 99 L 458.035156 99 L 458.035156 102 L 43.042969 102 Z M 43.042969 99 "/>
</clipPath>
<clipPath id="clip-3">
<path clip-rule="nonzero" d="M 43.042969 36 L 458.035156 36 L 458.035156 39 L 43.042969 39 Z M 43.042969 36 "/>
</clipPath>
<clipPath id="clip-4">
<path clip-rule="nonzero" d="M 43.042969 5.976562 L 44 5.976562 L 44 226.773438 L 43.042969 226.773438 Z M 43.042969 5.976562 "/>
</clipPath>
<clipPath id="clip-5">
<path clip-rule="nonzero" d="M 146 5.976562 L 148 5.976562 L 148 226.773438 L 146 226.773438 Z M 146 5.976562 "/>
</clipPath>
<clipPath id="clip-6">
<path clip-rule="nonzero" d="M 249 5.976562 L 252 5.976562 L 252 226.773438 L 249 226.773438 Z M 249 5.976562 "/>
</clipPath>
<clipPath id="clip-7">
<path clip-rule="nonzero" d="M 353 5.976562 L 355 5.976562 L 355 226.773438 L 353 226.773438 Z M 353 5.976562 "/>
</clipPath>
<clipPath id="clip-8">
<path clip-rule="nonzero" d="M 457 5.976562 L 458.035156 5.976562 L 458.035156 226.773438 L 457 226.773438 Z M 457 5.976562 "/>
</clipPath>
<clipPath id="clip-9">
<path clip-rule="nonzero" d="M 43.042969 86 L 458.035156 86 L 458.035156 191 L 43.042969 191 Z M 43.042969 86 "/>
</clipPath>
<clipPath id="clip-10">
<path clip-rule="nonzero" d="M 43.042969 48 L 458.035156 48 L 458.035156 153 L 43.042969 153 Z M 43.042969 48 "/>
</clipPath>
<clipPath id="clip-11">
<path clip-rule="nonzero" d="M 43.042969 99 L 458.035156 99 L 458.035156 102 L 43.042969 102 Z M 43.042969 99 "/>
</clipPath>
<clipPath id="clip-12">
<path clip-rule="nonzero" d="M 94 100 L 96 100 L 96 226.773438 L 94 226.773438 Z M 94 100 "/>
</clipPath>
<clipPath id="clip-13">
<path clip-rule="nonzero" d="M 250 100 L 251 100 L 251 226.773438 L 250 226.773438 Z M 250 100 "/>
</clipPath>
<clipPath id="clip-14">
<path clip-rule="nonzero" d="M 80 219 L 109 219 L 109 226.773438 L 80 226.773438 Z M 80 219 "/>
</clipPath>
<clipPath id="clip-15">
<path clip-rule="nonzero" d="M 235 219 L 267 219 L 267 226.773438 L 235 226.773438 Z M 235 219 "/>
</clipPath>
</defs>
<rect x="-46.8" y="-30.9" width="561.6" height="370.8" fill="rgb(100%, 100%, 100%)" fill-opacity="1"/>
<rect x="-46.8" y="-30.9" width="561.6" height="370.8" fill="rgb(100%, 100%, 100%)" fill-opacity="1"/>
<g clip-path="url(#clip-0)">
<path fill="none" stroke-width="1.260974" stroke-linecap="butt" stroke-linejoin="round" stroke="rgb(87.843137%, 87.843137%, 87.843137%)" stroke-opacity="1" stroke-miterlimit="10" d="M 43.042969 226.773438 L 458.039062 226.773438 "/>
</g>
<g clip-path="url(#clip-1)">
<path fill="none" stroke-width="1.260974" stroke-linecap="butt" stroke-linejoin="round" stroke="rgb(87.843137%, 87.843137%, 87.843137%)" stroke-opacity="1" stroke-miterlimit="10" d="M 43.042969 163.6875 L 458.039062 163.6875 "/>
</g>
<g clip-path="url(#clip-2)">
<path fill="none" stroke-width="1.260974" stroke-linecap="butt" stroke-linejoin="round" stroke="rgb(87.843137%, 87.843137%, 87.843137%)" stroke-opacity="1" stroke-miterlimit="10" d="M 43.042969 100.605469 L 458.039062 100.605469 "/>
</g>
<g clip-path="url(#clip-3)">
<path fill="none" stroke-width="1.260974" stroke-linecap="butt" stroke-linejoin="round" stroke="rgb(87.843137%, 87.843137%, 87.843137%)" stroke-opacity="1" stroke-miterlimit="10" d="M 43.042969 37.519531 L 458.039062 37.519531 "/>
</g>
<g clip-path="url(#clip-4)">
<path fill="none" stroke-width="1.260974" stroke-linecap="butt" stroke-linejoin="round" stroke="rgb(87.843137%, 87.843137%, 87.843137%)" stroke-opacity="1" stroke-miterlimit="10" d="M 43.042969 226.773438 L 43.042969 5.976562 "/>
</g>
<g clip-path="url(#clip-5)">
<path fill="none" stroke-width="1.260974" stroke-linecap="butt" stroke-linejoin="round" stroke="rgb(87.843137%, 87.843137%, 87.843137%)" stroke-opacity="1" stroke-miterlimit="10" d="M 146.792969 226.773438 L 146.792969 5.976562 "/>
</g>
<g clip-path="url(#clip-6)">
<path fill="none" stroke-width="1.260974" stroke-linecap="butt" stroke-linejoin="round" stroke="rgb(87.843137%, 87.843137%, 87.843137%)" stroke-opacity="1" stroke-miterlimit="10" d="M 250.539062 226.773438 L 250.539062 5.976562 "/>
</g>
<g clip-path="url(#clip-7)">
<path fill="none" stroke-width="1.260974" stroke-linecap="butt" stroke-linejoin="round" stroke="rgb(87.843137%, 87.843137%, 87.843137%)" stroke-opacity="1" stroke-miterlimit="10" d="M 354.289062 226.773438 L 354.289062 5.976562 "/>
</g>
<g clip-path="url(#clip-8)">
<path fill="none" stroke-width="1.260974" stroke-linecap="butt" stroke-linejoin="round" stroke="rgb(87.843137%, 87.843137%, 87.843137%)" stroke-opacity="1" stroke-miterlimit="10" d="M 458.039062 226.773438 L 458.039062 5.976562 "/>
</g>
<g clip-path="url(#clip-9)">
<path fill="none" stroke-width="2.347352" stroke-linecap="butt" stroke-linejoin="round" stroke="rgb(12.156863%, 30.588235%, 47.45098%)" stroke-opacity="1" stroke-miterlimit="10" d="M 43.042969 87.988281 L 45.128906 88.496094 L 47.214844 89 L 51.386719 90.015625 L 53.46875 90.523438 L 59.726562 92.046875 L 61.8125 92.550781 L 65.984375 93.566406 L 68.066406 94.074219 L 72.238281 95.089844 L 74.324219 95.59375 L 82.667969 97.625 L 84.75 98.132812 L 86.835938 98.640625 L 88.921875 99.144531 L 97.265625 101.175781 L 99.347656 101.683594 L 101.433594 102.191406 L 103.519531 102.695312 L 111.863281 104.726562 L 113.945312 105.234375 L 116.03125 105.738281 L 126.460938 108.277344 L 128.542969 108.785156 L 130.628906 109.289062 L 141.058594 111.828125 L 143.144531 112.332031 L 145.226562 112.839844 L 155.65625 115.378906 L 157.742188 115.882812 L 159.824219 116.390625 L 168.167969 118.421875 L 170.253906 118.925781 L 172.339844 119.433594 L 174.421875 119.941406 L 182.765625 121.972656 L 184.851562 122.476562 L 186.9375 122.984375 L 189.019531 123.492188 L 195.277344 125.015625 L 197.363281 125.519531 L 201.535156 126.535156 L 203.617188 127.042969 L 209.875 128.566406 L 211.960938 129.070312 L 218.21875 130.59375 L 220.300781 131.101562 L 222.386719 131.609375 L 224.472656 132.113281 L 232.816406 134.144531 L 234.898438 134.652344 L 236.984375 135.160156 L 239.070312 135.664062 L 247.414062 137.695312 L 249.496094 138.203125 L 251.582031 138.707031 L 262.011719 141.246094 L 264.09375 141.753906 L 266.179688 142.257812 L 276.609375 144.796875 L 278.691406 145.300781 L 291.207031 148.347656 L 293.292969 148.851562 L 295.375 149.359375 L 303.71875 151.390625 L 305.804688 151.894531 L 307.890625 152.402344 L 309.972656 152.910156 L 318.316406 154.941406 L 320.402344 155.445312 L 322.488281 155.953125 L 324.570312 156.460938 L 330.828125 157.984375 L 332.914062 158.488281 L 337.085938 159.503906 L 339.167969 160.011719 L 345.425781 161.535156 L 347.511719 162.039062 L 351.683594 163.054688 L 353.765625 163.5625 L 357.9375 164.578125 L 360.023438 165.082031 L 368.367188 167.113281 L 370.449219 167.621094 L 372.535156 168.128906 L 374.621094 168.632812 L 382.964844 170.664062 L 385.046875 171.171875 L 387.132812 171.675781 L 397.5625 174.214844 L 399.644531 174.722656 L 401.730469 175.226562 L 412.160156 177.765625 L 414.242188 178.269531 L 426.757812 181.316406 L 428.84375 181.820312 L 430.925781 182.328125 L 439.269531 184.359375 L 441.355469 184.863281 L 443.441406 185.371094 L 445.523438 185.878906 L 453.867188 187.910156 L 455.953125 188.414062 L 458.039062 188.921875 "/>
</g>
<g clip-path="url(#clip-10)">
<path fill="none" stroke-width="2.347352" stroke-linecap="butt" stroke-linejoin="round" stroke="rgb(70.980392%, 18.823529%, 22.745098%)" stroke-opacity="1" stroke-miterlimit="10" d="M 43.042969 50.136719 L 49.300781 51.660156 L 51.386719 52.164062 L 53.46875 52.671875 L 61.8125 54.703125 L 63.898438 55.207031 L 65.984375 55.714844 L 68.066406 56.222656 L 76.410156 58.253906 L 78.496094 58.757812 L 82.667969 59.773438 L 84.75 60.28125 L 88.921875 61.296875 L 91.007812 61.800781 L 97.265625 63.324219 L 99.347656 63.832031 L 103.519531 64.847656 L 105.605469 65.351562 L 111.863281 66.875 L 113.945312 67.382812 L 116.03125 67.890625 L 118.117188 68.394531 L 126.460938 70.425781 L 128.542969 70.933594 L 130.628906 71.441406 L 132.714844 71.945312 L 143.144531 74.484375 L 145.226562 74.988281 L 157.742188 78.035156 L 159.824219 78.539062 L 170.253906 81.078125 L 172.339844 81.582031 L 174.421875 82.089844 L 184.851562 84.628906 L 186.9375 85.132812 L 189.019531 85.640625 L 197.363281 87.671875 L 199.449219 88.175781 L 201.535156 88.683594 L 203.617188 89.191406 L 211.960938 91.222656 L 214.046875 91.726562 L 218.21875 92.742188 L 220.300781 93.25 L 224.472656 94.265625 L 226.558594 94.769531 L 232.816406 96.292969 L 234.898438 96.800781 L 239.070312 97.816406 L 241.15625 98.320312 L 247.414062 99.84375 L 249.496094 100.351562 L 253.667969 101.367188 L 255.753906 101.871094 L 262.011719 103.394531 L 264.09375 103.902344 L 266.179688 104.410156 L 268.265625 104.914062 L 276.609375 106.945312 L 278.691406 107.453125 L 280.777344 107.960938 L 282.863281 108.464844 L 293.292969 111.003906 L 295.375 111.507812 L 307.890625 114.554688 L 309.972656 115.058594 L 320.402344 117.597656 L 322.488281 118.101562 L 324.570312 118.609375 L 335 121.148438 L 337.085938 121.652344 L 339.167969 122.160156 L 347.511719 124.191406 L 349.597656 124.695312 L 351.683594 125.203125 L 353.765625 125.710938 L 362.109375 127.742188 L 364.195312 128.246094 L 368.367188 129.261719 L 370.449219 129.769531 L 374.621094 130.785156 L 376.707031 131.289062 L 382.964844 132.8125 L 385.046875 133.320312 L 389.21875 134.335938 L 391.304688 134.839844 L 397.5625 136.363281 L 399.644531 136.871094 L 401.730469 137.378906 L 403.816406 137.882812 L 412.160156 139.914062 L 414.242188 140.421875 L 416.328125 140.929688 L 418.414062 141.433594 L 428.84375 143.972656 L 430.925781 144.476562 L 443.441406 147.523438 L 445.523438 148.027344 L 455.953125 150.566406 L 458.039062 151.070312 "/>
</g>
<g clip-path="url(#clip-11)">
<path fill="none" stroke-width="1.920561" stroke-linecap="butt" stroke-linejoin="round" stroke="rgb(42.352941%, 45.882353%, 49.019608%)" stroke-opacity="1" stroke-miterlimit="10" d="M 43.042969 100.605469 L 458.039062 100.605469 "/>
</g>
<g fill="rgb(42.352941%, 45.882353%, 49.019608%)" fill-opacity="1">
<use xlink:href="#glyph-0-1" x="370.289062" y="95.983398"/>
<use xlink:href="#glyph-0-2" x="376.289062" y="95.983398"/>
<use xlink:href="#glyph-0-3" x="382.289062" y="95.983398"/>
<use xlink:href="#glyph-0-4" x="385.289062" y="95.983398"/>
<use xlink:href="#glyph-0-3" x="388.289062" y="95.983398"/>
<use xlink:href="#glyph-0-5" x="391.289062" y="95.983398"/>
<use xlink:href="#glyph-0-6" x="398.289062" y="95.983398"/>
<use xlink:href="#glyph-0-1" x="401.289062" y="95.983398"/>
<use xlink:href="#glyph-0-3" x="407.289062" y="95.983398"/>
<use xlink:href="#glyph-0-7" x="410.289062" y="95.983398"/>
<use xlink:href="#glyph-0-3" x="416.289062" y="95.983398"/>
<use xlink:href="#glyph-0-8" x="419.289062" y="95.983398"/>
<use xlink:href="#glyph-0-9" x="424.289062" y="95.983398"/>
<use xlink:href="#glyph-0-10" x="427.289062" y="95.983398"/>
<use xlink:href="#glyph-0-8" x="432.289062" y="95.983398"/>
</g>
<g clip-path="url(#clip-12)">
<path fill="none" stroke-width="0.853583" stroke-linecap="butt" stroke-linejoin="round" stroke="rgb(60%, 60%, 60%)" stroke-opacity="1" stroke-dasharray="3.414331 3.414331" stroke-miterlimit="10" d="M 94.917969 226.773438 L 94.917969 100.605469 "/>
</g>
<g clip-path="url(#clip-13)">
<path fill="none" stroke-width="0.853583" stroke-linecap="butt" stroke-linejoin="round" stroke="rgb(60%, 60%, 60%)" stroke-opacity="1" stroke-dasharray="3.414331 3.414331" stroke-miterlimit="10" d="M 250.539062 226.773438 L 250.539062 100.605469 "/>
</g>
<path fill-rule="nonzero" fill="rgb(12.156863%, 30.588235%, 47.45098%)" fill-opacity="1" stroke-width="0.837509" stroke-linecap="round" stroke-linejoin="round" stroke="rgb(12.156863%, 30.588235%, 47.45098%)" stroke-opacity="1" stroke-miterlimit="10" d="M 98.539062 100.605469 C 98.539062 105.429688 91.296875 105.429688 91.296875 100.605469 C 91.296875 95.777344 98.539062 95.777344 98.539062 100.605469 "/>
<path fill-rule="nonzero" fill="rgb(70.980392%, 18.823529%, 22.745098%)" fill-opacity="1" stroke-width="0.837509" stroke-linecap="round" stroke-linejoin="round" stroke="rgb(70.980392%, 18.823529%, 22.745098%)" stroke-opacity="1" stroke-miterlimit="10" d="M 254.160156 100.605469 C 254.160156 105.429688 246.921875 105.429688 246.921875 100.605469 C 246.921875 95.777344 254.160156 95.777344 254.160156 100.605469 "/>
<g clip-path="url(#clip-14)">
<g fill="rgb(12.156863%, 30.588235%, 47.45098%)" fill-opacity="1">
<use xlink:href="#glyph-0-11" x="79.417969" y="226.569336"/>
<use xlink:href="#glyph-0-12" x="84.417969" y="226.569336"/>
<use xlink:href="#glyph-0-13" x="89.417969" y="226.569336"/>
<use xlink:href="#glyph-0-3" x="93.417969" y="226.569336"/>
<use xlink:href="#glyph-0-7" x="96.417969" y="226.569336"/>
<use xlink:href="#glyph-0-3" x="102.417969" y="226.569336"/>
<use xlink:href="#glyph-0-12" x="105.417969" y="226.569336"/>
</g>
</g>
<g clip-path="url(#clip-15)">
<g fill="rgb(70.980392%, 18.823529%, 22.745098%)" fill-opacity="1">
<use xlink:href="#glyph-0-11" x="235.039062" y="226.569336"/>
<use xlink:href="#glyph-0-14" x="240.039062" y="226.569336"/>
<use xlink:href="#glyph-0-13" x="245.039062" y="226.569336"/>
<use xlink:href="#glyph-0-3" x="249.039062" y="226.569336"/>
<use xlink:href="#glyph-0-7" x="252.039062" y="226.569336"/>
<use xlink:href="#glyph-0-3" x="258.039062" y="226.569336"/>
<use xlink:href="#glyph-0-15" x="261.039062" y="226.569336"/>
</g>
</g>
<g fill="rgb(30.196078%, 30.196078%, 30.196078%)" fill-opacity="1">
<use xlink:href="#glyph-1-1" x="22.214844" y="229.78125"/>
<use xlink:href="#glyph-1-2" x="28.214844" y="229.78125"/>
<use xlink:href="#glyph-1-3" x="31.214844" y="229.78125"/>
</g>
<g fill="rgb(30.196078%, 30.196078%, 30.196078%)" fill-opacity="1">
<use xlink:href="#glyph-1-1" x="22.214844" y="166.695312"/>
<use xlink:href="#glyph-1-2" x="28.214844" y="166.695312"/>
<use xlink:href="#glyph-1-4" x="31.214844" y="166.695312"/>
</g>
<g fill="rgb(30.196078%, 30.196078%, 30.196078%)" fill-opacity="1">
<use xlink:href="#glyph-1-1" x="22.214844" y="103.613281"/>
<use xlink:href="#glyph-1-2" x="28.214844" y="103.613281"/>
<use xlink:href="#glyph-1-5" x="31.214844" y="103.613281"/>
</g>
<g fill="rgb(30.196078%, 30.196078%, 30.196078%)" fill-opacity="1">
<use xlink:href="#glyph-1-1" x="22.214844" y="40.527344"/>
<use xlink:href="#glyph-1-2" x="28.214844" y="40.527344"/>
<use xlink:href="#glyph-1-6" x="31.214844" y="40.527344"/>
</g>
<g fill="rgb(30.196078%, 30.196078%, 30.196078%)" fill-opacity="1">
<use xlink:href="#glyph-1-1" x="40.042969" y="239.609375"/>
</g>
<g fill="rgb(30.196078%, 30.196078%, 30.196078%)" fill-opacity="1">
<use xlink:href="#glyph-1-7" x="143.792969" y="239.609375"/>
</g>
<g fill="rgb(30.196078%, 30.196078%, 30.196078%)" fill-opacity="1">
<use xlink:href="#glyph-1-8" x="247.539062" y="239.609375"/>
</g>
<g fill="rgb(30.196078%, 30.196078%, 30.196078%)" fill-opacity="1">
<use xlink:href="#glyph-1-4" x="351.289062" y="239.609375"/>
</g>
<g fill="rgb(30.196078%, 30.196078%, 30.196078%)" fill-opacity="1">
<use xlink:href="#glyph-1-6" x="455.039062" y="239.609375"/>
</g>
<g fill="rgb(0%, 0%, 0%)" fill-opacity="1">
<use xlink:href="#glyph-2-1" x="186.039062" y="255.850586"/>
<use xlink:href="#glyph-2-2" x="193.039062" y="255.850586"/>
<use xlink:href="#glyph-2-3" x="200.039062" y="255.850586"/>
<use xlink:href="#glyph-2-4" x="208.039062" y="255.850586"/>
<use xlink:href="#glyph-2-5" x="215.039062" y="255.850586"/>
<use xlink:href="#glyph-2-6" x="219.039062" y="255.850586"/>
<use xlink:href="#glyph-2-7" x="227.039062" y="255.850586"/>
<use xlink:href="#glyph-2-5" x="234.039062" y="255.850586"/>
<use xlink:href="#glyph-2-8" x="238.039062" y="255.850586"/>
<use xlink:href="#glyph-2-9" x="245.039062" y="255.850586"/>
<use xlink:href="#glyph-2-10" x="253.039062" y="255.850586"/>
<use xlink:href="#glyph-2-11" x="261.039062" y="255.850586"/>
<use xlink:href="#glyph-2-2" x="273.039062" y="255.850586"/>
<use xlink:href="#glyph-2-12" x="280.039062" y="255.850586"/>
<use xlink:href="#glyph-2-7" x="288.039062" y="255.850586"/>
<use xlink:href="#glyph-2-5" x="295.039062" y="255.850586"/>
<use xlink:href="#glyph-2-13" x="299.039062" y="255.850586"/>
<use xlink:href="#glyph-2-3" x="303.039062" y="255.850586"/>
<use xlink:href="#glyph-2-14" x="311.039062" y="255.850586"/>
</g>
<g fill="rgb(0%, 0%, 0%)" fill-opacity="1">
<use xlink:href="#glyph-3-1" x="14.987305" y="168.875"/>
<use xlink:href="#glyph-3-2" x="14.987305" y="159.875"/>
<use xlink:href="#glyph-3-3" x="14.987305" y="152.875"/>
<use xlink:href="#glyph-3-2" x="14.987305" y="148.875"/>
<use xlink:href="#glyph-3-4" x="14.987305" y="141.875"/>
<use xlink:href="#glyph-3-5" x="14.987305" y="137.875"/>
<use xlink:href="#glyph-3-6" x="14.987305" y="132.875"/>
<use xlink:href="#glyph-3-7" x="14.987305" y="125.875"/>
<use xlink:href="#glyph-3-5" x="14.987305" y="121.875"/>
<use xlink:href="#glyph-3-8" x="14.987305" y="116.875"/>
<use xlink:href="#glyph-3-6" x="14.987305" y="109.875"/>
<use xlink:href="#glyph-3-3" x="14.987305" y="102.875"/>
<use xlink:href="#glyph-3-7" x="14.987305" y="98.875"/>
<use xlink:href="#glyph-3-9" x="14.987305" y="94.875"/>
<use xlink:href="#glyph-3-10" x="14.987305" y="90.875"/>
<use xlink:href="#glyph-3-11" x="14.987305" y="80.875"/>
<use xlink:href="#glyph-3-12" x="14.987305" y="76.875"/>
<use xlink:href="#glyph-3-13" x="14.987305" y="67.875"/>
</g>
<path fill="none" stroke-width="2.347352" stroke-linecap="butt" stroke-linejoin="round" stroke="rgb(12.156863%, 30.588235%, 47.45098%)" stroke-opacity="1" stroke-miterlimit="10" d="M 77.273438 287.90625 L 91.097656 287.90625 "/>
<path fill-rule="nonzero" fill="rgb(12.156863%, 30.588235%, 47.45098%)" fill-opacity="1" stroke-width="0.837509" stroke-linecap="round" stroke-linejoin="round" stroke="rgb(12.156863%, 30.588235%, 47.45098%)" stroke-opacity="1" stroke-miterlimit="10" d="M 87.804688 287.90625 C 87.804688 292.734375 80.566406 292.734375 80.566406 287.90625 C 80.566406 283.082031 87.804688 283.082031 87.804688 287.90625 "/>
<path fill="none" stroke-width="2.347352" stroke-linecap="butt" stroke-linejoin="round" stroke="rgb(70.980392%, 18.823529%, 22.745098%)" stroke-opacity="1" stroke-miterlimit="10" d="M 260.507812 287.90625 L 274.332031 287.90625 "/>
<path fill-rule="nonzero" fill="rgb(70.980392%, 18.823529%, 22.745098%)" fill-opacity="1" stroke-width="0.837509" stroke-linecap="round" stroke-linejoin="round" stroke="rgb(70.980392%, 18.823529%, 22.745098%)" stroke-opacity="1" stroke-miterlimit="10" d="M 271.039062 287.90625 C 271.039062 292.734375 263.796875 292.734375 263.796875 287.90625 C 263.796875 283.082031 271.039062 283.082031 271.039062 287.90625 "/>
<g fill="rgb(0%, 0%, 0%)" fill-opacity="1">
<use xlink:href="#glyph-1-9" x="99.300781" y="290.914062"/>
<use xlink:href="#glyph-1-10" x="106.300781" y="290.914062"/>
<use xlink:href="#glyph-1-11" x="112.300781" y="290.914062"/>
<use xlink:href="#glyph-1-12" x="118.300781" y="290.914062"/>
<use xlink:href="#glyph-1-10" x="123.300781" y="290.914062"/>
<use xlink:href="#glyph-1-13" x="129.300781" y="290.914062"/>
<use xlink:href="#glyph-1-14" x="131.300781" y="290.914062"/>
<use xlink:href="#glyph-1-15" x="134.300781" y="290.914062"/>
<use xlink:href="#glyph-1-16" x="137.300781" y="290.914062"/>
<use xlink:href="#glyph-1-17" x="143.300781" y="290.914062"/>
<use xlink:href="#glyph-1-18" x="149.300781" y="290.914062"/>
<use xlink:href="#glyph-1-15" x="154.300781" y="290.914062"/>
<use xlink:href="#glyph-1-13" x="157.300781" y="290.914062"/>
<use xlink:href="#glyph-1-19" x="159.300781" y="290.914062"/>
<use xlink:href="#glyph-1-18" x="165.300781" y="290.914062"/>
<use xlink:href="#glyph-1-13" x="170.300781" y="290.914062"/>
<use xlink:href="#glyph-1-16" x="172.300781" y="290.914062"/>
<use xlink:href="#glyph-1-17" x="178.300781" y="290.914062"/>
<use xlink:href="#glyph-1-14" x="184.300781" y="290.914062"/>
<use xlink:href="#glyph-1-18" x="187.300781" y="290.914062"/>
<use xlink:href="#glyph-1-15" x="192.300781" y="290.914062"/>
<use xlink:href="#glyph-1-20" x="195.300781" y="290.914062"/>
<use xlink:href="#glyph-1-21" x="198.300781" y="290.914062"/>
<use xlink:href="#glyph-1-13" x="204.300781" y="290.914062"/>
<use xlink:href="#glyph-1-22" x="206.300781" y="290.914062"/>
<use xlink:href="#glyph-1-23" x="212.300781" y="290.914062"/>
<use xlink:href="#glyph-1-17" x="214.300781" y="290.914062"/>
<use xlink:href="#glyph-1-15" x="220.300781" y="290.914062"/>
<use xlink:href="#glyph-1-24" x="223.300781" y="290.914062"/>
<use xlink:href="#glyph-1-25" x="226.300781" y="290.914062"/>
<use xlink:href="#glyph-1-26" x="236.300781" y="290.914062"/>
<use xlink:href="#glyph-1-27" x="243.300781" y="290.914062"/>
<use xlink:href="#glyph-1-28" x="249.300781" y="290.914062"/>
</g>
<g fill="rgb(0%, 0%, 0%)" fill-opacity="1">
<use xlink:href="#glyph-1-9" x="282.535156" y="290.914062"/>
<use xlink:href="#glyph-1-10" x="289.535156" y="290.914062"/>
<use xlink:href="#glyph-1-11" x="295.535156" y="290.914062"/>
<use xlink:href="#glyph-1-12" x="301.535156" y="290.914062"/>
<use xlink:href="#glyph-1-10" x="306.535156" y="290.914062"/>
<use xlink:href="#glyph-1-13" x="312.535156" y="290.914062"/>
<use xlink:href="#glyph-1-14" x="314.535156" y="290.914062"/>
<use xlink:href="#glyph-1-15" x="317.535156" y="290.914062"/>
<use xlink:href="#glyph-1-16" x="320.535156" y="290.914062"/>
<use xlink:href="#glyph-1-17" x="326.535156" y="290.914062"/>
<use xlink:href="#glyph-1-18" x="332.535156" y="290.914062"/>
<use xlink:href="#glyph-1-15" x="337.535156" y="290.914062"/>
<use xlink:href="#glyph-1-13" x="340.535156" y="290.914062"/>
<use xlink:href="#glyph-1-19" x="342.535156" y="290.914062"/>
<use xlink:href="#glyph-1-18" x="348.535156" y="290.914062"/>
<use xlink:href="#glyph-1-13" x="353.535156" y="290.914062"/>
<use xlink:href="#glyph-1-16" x="355.535156" y="290.914062"/>
<use xlink:href="#glyph-1-17" x="361.535156" y="290.914062"/>
<use xlink:href="#glyph-1-14" x="367.535156" y="290.914062"/>
<use xlink:href="#glyph-1-18" x="370.535156" y="290.914062"/>
<use xlink:href="#glyph-1-15" x="375.535156" y="290.914062"/>
<use xlink:href="#glyph-1-20" x="378.535156" y="290.914062"/>
<use xlink:href="#glyph-1-10" x="381.535156" y="290.914062"/>
<use xlink:href="#glyph-1-14" x="387.535156" y="290.914062"/>
<use xlink:href="#glyph-1-29" x="390.535156" y="290.914062"/>
<use xlink:href="#glyph-1-15" x="393.535156" y="290.914062"/>
<use xlink:href="#glyph-1-24" x="396.535156" y="290.914062"/>
<use xlink:href="#glyph-1-25" x="399.535156" y="290.914062"/>
<use xlink:href="#glyph-1-26" x="409.535156" y="290.914062"/>
<use xlink:href="#glyph-1-7" x="416.535156" y="290.914062"/>
<use xlink:href="#glyph-1-28" x="422.535156" y="290.914062"/>
</g>
</svg>
